<svg width="50" height="50" viewBox="0 0 50 50" fill="none" xmlns="http://www.w3.org/2000/svg">
<path fill-rule="evenodd" clip-rule="evenodd" d="M24.0858 1.40796C10.7833 1.40796 0 12.1918 0 25.4937C0 38.7874 10.7926 49.5795 24.0858 49.5795C37.3882 49.5795 48.1716 38.7962 48.1716 25.4937H47.6275C47.6275 38.4957 37.0877 49.0354 24.0858 49.0354C11.0926 49.0354 0.544118 38.4869 0.544118 25.4937C0.544118 12.4923 11.0843 1.95208 24.0858 1.95208V1.40796Z" fill="#2C7BD8"/>
<path d="M24.0859 45.4932C35.1314 45.4932 44.0854 36.5391 44.0854 25.4937C44.0854 14.4482 35.1314 5.49414 24.0859 5.49414C13.0405 5.49414 4.08643 14.4482 4.08643 25.4937C4.08643 36.5391 13.0405 45.4932 24.0859 45.4932Z" fill="#D9ECFB"/>
<path d="M23.3619 3.5549C24.3436 3.5549 25.1394 2.75911 25.1394 1.77745C25.1394 0.795792 24.3436 0 23.3619 0C22.3803 0 21.5845 0.795792 21.5845 1.77745C21.5845 2.75911 22.3803 3.5549 23.3619 3.5549Z" fill="#FDAB00"/>
<path d="M47.795 27.5622C48.7767 27.5622 49.5725 26.7664 49.5725 25.7848C49.5725 24.8031 48.7767 24.0073 47.795 24.0073C46.8134 24.0073 46.0176 24.8031 46.0176 25.7848C46.0176 26.7664 46.8134 27.5622 47.795 27.5622Z" fill="#FDAB00"/>
<path fill-rule="evenodd" clip-rule="evenodd" d="M8.09403 18.6619H3.26952C2.58031 18.6619 2.02148 19.2207 2.02148 19.9104C2.02148 19.928 2.02148 19.9457 2.02148 19.9638C2.02148 20.653 2.58031 21.2124 3.26952 21.2124C5.04697 21.2124 8.09403 21.2124 8.09403 21.2124V18.6619Z" fill="#2C7BD8"/>
<path fill-rule="evenodd" clip-rule="evenodd" d="M36.7135 22.7952H12.8096L17.6836 33.6035H31.8086L36.7135 22.7952Z" fill="#2C7BD8"/>
<path d="M31.8095 35.7769H14.707V37.9813H31.8095V35.7769Z" fill="#2C7BD8"/>
<path d="M17.5498 42.7837C19.4847 42.7837 21.0533 41.2152 21.0533 39.2803C21.0533 37.3454 19.4847 35.7769 17.5498 35.7769C15.6149 35.7769 14.0464 37.3454 14.0464 39.2803C14.0464 41.2152 15.6149 42.7837 17.5498 42.7837Z" fill="#2C7BD8"/>
<path d="M17.5499 41.6818C18.8762 41.6818 19.9514 40.6067 19.9514 39.2804C19.9514 37.9541 18.8762 36.8789 17.5499 36.8789C16.2236 36.8789 15.1484 37.9541 15.1484 39.2804C15.1484 40.6067 16.2236 41.6818 17.5499 41.6818Z" fill="#D9ECFB"/>
<path d="M31.8091 42.7837C33.744 42.7837 35.3125 41.2152 35.3125 39.2803C35.3125 37.3454 33.744 35.7769 31.8091 35.7769C29.8742 35.7769 28.3057 37.3454 28.3057 39.2803C28.3057 41.2152 29.8742 42.7837 31.8091 42.7837Z" fill="#2C7BD8"/>
<path d="M31.8092 41.6818C33.1355 41.6818 34.2107 40.6067 34.2107 39.2804C34.2107 37.9541 33.1355 36.8789 31.8092 36.8789C30.4829 36.8789 29.4077 37.9541 29.4077 39.2804C29.4077 40.6067 30.4829 41.6818 31.8092 41.6818Z" fill="#D9ECFB"/>
<path fill-rule="evenodd" clip-rule="evenodd" d="M17.1464 36.7604L8.09792 18.6619L5.65625 19.8829L14.7043 37.9815L17.1464 36.7604Z" fill="#2C7BD8"/>
<path d="M41.8793 26.2583H29.4077V28.1995H41.8793V26.2583Z" fill="#2EBE80"/>
<path d="M37.0827 29.4065H26.5352V30.7227H37.0827V29.4065Z" fill="#FDAB00"/>
<path d="M31.8094 16.8025L23.4516 13.229L24.9266 15.4584H12.853L14.7721 18.4957H26.4942L27.5432 20.7069L31.8094 16.8025Z" fill="#FDAB00"/>
</svg>
