<svg width="50" height="50" viewBox="0 0 50 50" fill="none" xmlns="http://www.w3.org/2000/svg">
<path fill-rule="evenodd" clip-rule="evenodd" d="M24.0858 1.40796C10.7833 1.40796 0 12.1918 0 25.4942C0 38.7874 10.7922 49.58 24.0858 49.58C37.3882 49.58 48.1716 38.7962 48.1716 25.4942H47.6275C47.6275 38.4957 37.0877 49.0359 24.0858 49.0359C11.0926 49.0359 0.544118 38.4869 0.544118 25.4942C0.544118 12.4923 11.0838 1.95208 24.0858 1.95208V1.40796Z" fill="#2C7BD8"/>
<path d="M24.0854 45.4936C35.1309 45.4936 44.085 36.5396 44.085 25.4941C44.085 14.4487 35.1309 5.49463 24.0854 5.49463C13.04 5.49463 4.08594 14.4487 4.08594 25.4941C4.08594 36.5396 13.04 45.4936 24.0854 45.4936Z" fill="#D9ECFB"/>
<path d="M23.3614 3.5549C24.3431 3.5549 25.1389 2.75911 25.1389 1.77745C25.1389 0.795792 24.3431 0 23.3614 0C22.3798 0 21.584 0.795792 21.584 1.77745C21.584 2.75911 22.3798 3.5549 23.3614 3.5549Z" fill="#FDAB00"/>
<path d="M47.7945 27.5622C48.7762 27.5622 49.572 26.7664 49.572 25.7848C49.572 24.8031 48.7762 24.0073 47.7945 24.0073C46.8129 24.0073 46.0171 24.8031 46.0171 25.7848C46.0171 26.7664 46.8129 27.5622 47.7945 27.5622Z" fill="#FDAB00"/>
<path d="M21.8121 11.1921C20.5214 10.0538 18.8616 9.32637 17.0342 9.21216V15.97L21.8121 11.1921Z" fill="#2EBE80"/>
<path d="M17.0342 17.0739V23.0666C20.2582 22.8651 22.8111 20.1876 22.8111 16.9126C22.8111 15.3499 22.2293 13.9239 21.2709 12.8372L17.0342 17.0739Z" fill="#FDAB00"/>
<path d="M10.4766 16.9127C10.4766 20.1877 13.029 22.8652 16.2535 23.0666V10.7583C13.029 10.9598 10.4766 13.6372 10.4766 16.9127Z" fill="#2C7BD8"/>
<path d="M40.4221 15.5387C40.0941 15.8676 39.5618 15.8676 39.2334 15.5387L35.4579 11.7651C35.1299 11.4347 35.1299 10.9034 35.4579 10.5754L38.3946 7.63866C38.7231 7.31023 39.2554 7.31023 39.5843 7.63866L43.3589 11.4132C43.6873 11.7426 43.6868 12.2744 43.3584 12.6029L40.4221 15.5387Z" fill="#FDAB00"/>
<path d="M19.9828 26.0505L16.6445 34.6167L24.9921 31.0608L19.9828 26.0505Z" fill="#FDAB00"/>
<path d="M17.8087 31.6279L16.6445 34.6167L19.5583 33.376L17.8087 31.6279Z" fill="#2C7BD8"/>
<path d="M24.9917 31.0608L19.9824 26.0505L35.5295 10.5029L40.5393 15.5132L24.9917 31.0608Z" fill="#2C7BD8"/>
<path d="M40.5391 15.5131L35.5293 10.5028L36.82 9.21216L41.8308 14.222L40.5391 15.5131Z" fill="#2EBE80"/>
<path d="M24.9918 31.0608L22.4648 28.5324L38.0129 12.9849L40.5394 15.5133L24.9918 31.0608Z" fill="#1260AE"/>
<path d="M16.1408 36.2456C16.1452 36.2466 17.6236 36.5642 19.3922 36.8829C20.2766 37.0422 21.2334 37.202 22.1192 37.3226C23.0065 37.4427 23.8148 37.5255 24.4413 37.5265C24.5957 37.5265 24.7393 37.5216 24.8756 37.5093C25.5648 37.4436 26.2937 37.2108 27.0663 36.9108C28.2207 36.4588 29.4658 35.8417 30.6256 35.3275C31.205 35.0706 31.7618 34.8392 32.2653 34.6677C32.7672 34.4956 33.2177 34.3858 33.5623 34.3583C33.5942 34.3559 33.6329 34.3539 33.6766 34.3539C33.8285 34.3539 34.0427 34.374 34.2883 34.4147C34.7192 34.4848 35.2491 34.6142 35.7913 34.7696C36.606 35.002 37.452 35.2917 38.0908 35.5221C38.4104 35.6373 38.678 35.7378 38.8658 35.8093C38.9594 35.8451 39.0334 35.8735 39.0834 35.8931C39.1079 35.903 39.127 35.9103 39.1393 35.9157L39.1579 35.9226C39.506 36.0608 39.9006 35.8902 40.0383 35.5422C40.1765 35.1936 40.0065 34.7995 39.6579 34.6613C39.6501 34.6583 38.6221 34.2505 37.3751 33.8397C36.7511 33.6338 36.0726 33.4275 35.4324 33.2696C35.1123 33.1907 34.8011 33.1235 34.5074 33.0755C34.2133 33.0279 33.9383 32.9976 33.6766 32.9976C33.6001 32.9976 33.5251 33 33.4501 33.0059C32.7589 33.0657 32.0285 33.2951 31.255 33.5931C30.0986 34.0417 28.8535 34.6579 27.6922 35.1745C27.1128 35.4324 26.5555 35.6657 26.0516 35.8397C25.5491 36.0142 25.0981 36.1275 24.752 36.1579C24.6702 36.1657 24.5643 36.1701 24.4413 36.1701C23.9349 36.1706 23.1569 36.0951 22.302 35.9784C21.0167 35.8034 19.5432 35.5382 18.3952 35.3167C17.8212 35.2064 17.3275 35.1069 16.9785 35.0348C16.804 34.999 16.6653 34.9696 16.5707 34.95C16.4756 34.9299 16.4256 34.9191 16.4256 34.9191C16.0594 34.8407 15.6986 35.0735 15.6197 35.4402C15.5413 35.8064 15.7741 36.1672 16.1408 36.2456Z" fill="#2EBE80"/>
</svg>
