<svg width="50" height="50" viewBox="0 0 50 50" fill="none" xmlns="http://www.w3.org/2000/svg">
<path fill-rule="evenodd" clip-rule="evenodd" d="M23.8519 1.39429C10.6791 1.39429 0 12.0729 0 25.2462C0 38.4108 10.6879 49.0982 23.8519 49.0982C37.0252 49.0982 47.7039 38.4195 47.7039 25.2462H47.1651C47.1651 38.122 36.7277 48.5593 23.8519 48.5593C10.985 48.5593 0.538835 38.1132 0.538835 25.2462C0.538835 12.371 10.9767 1.93312 23.8519 1.93312V1.39429Z" fill="#2C7BD8"/>
<path d="M23.8517 45.0514C34.7899 45.0514 43.6571 36.1842 43.6571 25.246C43.6571 14.3078 34.7899 5.44067 23.8517 5.44067C12.9135 5.44067 4.04639 14.3078 4.04639 25.246C4.04639 36.1842 12.9135 45.0514 23.8517 45.0514Z" fill="#D9ECFB"/>
<path fill-rule="evenodd" clip-rule="evenodd" d="M8.75684 16.3074V14.6457L23.852 9.30835L38.9471 14.6457V16.3074H8.75684Z" fill="#2C7BD8"/>
<path fill-rule="evenodd" clip-rule="evenodd" d="M10.925 18.6953L10.0449 17.2268H37.659L36.7784 18.6953H10.925Z" fill="#1260AE"/>
<path d="M28.7047 19.6921H25.5522V32.0067H28.7047V19.6921Z" fill="#FDAB00"/>
<path d="M22.1519 19.6921H18.9995V32.0067H22.1519V19.6921Z" fill="#FDAB00"/>
<path d="M35.1727 19.6921H32.1548V32.0067H35.1727V19.6921Z" fill="#2EBE80"/>
<path d="M15.5492 19.6921H12.5312V32.0067H15.5492V19.6921Z" fill="#2EBE80"/>
<path fill-rule="evenodd" clip-rule="evenodd" d="M8.75684 36.6703L10.0452 32.9834H37.6593L38.9471 36.6703H8.75684Z" fill="#2C7BD8"/>
<path d="M23.1352 3.52039C24.1073 3.52039 24.8954 2.73232 24.8954 1.76019C24.8954 0.788066 24.1073 0 23.1352 0C22.1631 0 21.375 0.788066 21.375 1.76019C21.375 2.73232 22.1631 3.52039 23.1352 3.52039Z" fill="#FDAB00"/>
<path d="M47.331 27.2946C48.3031 27.2946 49.0912 26.5065 49.0912 25.5344C49.0912 24.5622 48.3031 23.7742 47.331 23.7742C46.3589 23.7742 45.5708 24.5622 45.5708 25.5344C45.5708 26.5065 46.3589 27.2946 47.331 27.2946Z" fill="#FDAB00"/>
</svg>
