<svg width="50" height="50" viewBox="0 0 50 50" fill="none" xmlns="http://www.w3.org/2000/svg">
<path fill-rule="evenodd" clip-rule="evenodd" d="M24.0858 1.40796C10.7838 1.40796 0 12.1918 0 25.4937C0 38.7874 10.7926 49.5795 24.0858 49.5795C37.3882 49.5795 48.1716 38.7962 48.1716 25.4937H47.6275C47.6275 38.4957 37.0877 49.0354 24.0858 49.0354C11.0926 49.0354 0.544118 38.4869 0.544118 25.4937C0.544118 12.4923 11.0843 1.95208 24.0858 1.95208V1.40796Z" fill="#2C7BD8"/>
<path d="M24.0859 45.4932C35.1314 45.4932 44.0854 36.5391 44.0854 25.4937C44.0854 14.4482 35.1314 5.49414 24.0859 5.49414C13.0405 5.49414 4.08643 14.4482 4.08643 25.4937C4.08643 36.5391 13.0405 45.4932 24.0859 45.4932Z" fill="#D9ECFB"/>
<path d="M23.3619 3.5549C24.3436 3.5549 25.1394 2.75911 25.1394 1.77745C25.1394 0.795792 24.3436 0 23.3619 0C22.3803 0 21.5845 0.795792 21.5845 1.77745C21.5845 2.75911 22.3803 3.5549 23.3619 3.5549Z" fill="#FDAB00"/>
<path d="M47.795 27.5622C48.7767 27.5622 49.5725 26.7664 49.5725 25.7848C49.5725 24.8031 48.7767 24.0073 47.795 24.0073C46.8134 24.0073 46.0176 24.8031 46.0176 25.7848C46.0176 26.7664 46.8134 27.5622 47.795 27.5622Z" fill="#FDAB00"/>
<path fill-rule="evenodd" clip-rule="evenodd" d="M24.0856 18.1535C27.193 12.6771 33.4077 12.6771 36.515 15.4276C39.6224 18.178 39.6224 23.679 36.515 29.1805C34.3395 33.306 28.7464 38.2545 24.0856 41.005C19.4248 38.2545 13.8317 33.306 11.6567 29.1805C8.54933 23.679 8.54933 18.178 11.6567 15.4276C14.7635 12.6771 20.9783 12.6771 24.0856 18.1535Z" fill="#2C7BD8"/>
<path d="M36.9813 21.3329C41.6576 21.3329 45.4485 17.5341 45.4485 12.8481C45.4485 8.16206 41.6576 4.36328 36.9813 4.36328C32.305 4.36328 28.5142 8.16206 28.5142 12.8481C28.5142 17.5341 32.305 21.3329 36.9813 21.3329Z" fill="#FDAB00"/>
<path d="M32.4966 11.5246H35.6451V8.35938H38.301V11.5246H41.4662V14.1883H38.301V17.3373H35.6451V14.1883H32.4966V11.5246Z" fill="#2C7BD8"/>
<path fill-rule="evenodd" clip-rule="evenodd" d="M40.0004 29.1304L39.4362 27.3118H30.5695L25.3862 31.6696L21.1896 21.1892L16.8994 25.4936H8.14355L8.82689 27.3122H17.6004L20.7509 24.2054L24.8122 34.3201L31.02 29.1304H40.0004Z" fill="#D9ECFB"/>
</svg>
