<svg width="50" height="50" viewBox="0 0 50 50" fill="none" xmlns="http://www.w3.org/2000/svg">
<path fill-rule="evenodd" clip-rule="evenodd" d="M24.0858 1.40796C10.7838 1.40796 0 12.1913 0 25.4937C0 38.7869 10.7926 49.5795 24.0858 49.5795C37.3882 49.5795 48.1716 38.7962 48.1716 25.4937H47.6275C47.6275 38.4952 37.0877 49.0354 24.0858 49.0354C11.0926 49.0354 0.544118 38.4869 0.544118 25.4937C0.544118 12.4918 11.0843 1.95208 24.0858 1.95208V1.40796Z" fill="#2C7BD8"/>
<path d="M24.0859 45.4932C35.1314 45.4932 44.0854 36.5391 44.0854 25.4937C44.0854 14.4482 35.1314 5.49414 24.0859 5.49414C13.0405 5.49414 4.08643 14.4482 4.08643 25.4937C4.08643 36.5391 13.0405 45.4932 24.0859 45.4932Z" fill="#D9ECFB"/>
<path d="M23.3619 3.5549C24.3436 3.5549 25.1394 2.75911 25.1394 1.77745C25.1394 0.795792 24.3436 0 23.3619 0C22.3803 0 21.5845 0.795792 21.5845 1.77745C21.5845 2.75911 22.3803 3.5549 23.3619 3.5549Z" fill="#FDAB00"/>
<path d="M47.795 27.5622C48.7767 27.5622 49.5725 26.7664 49.5725 25.7848C49.5725 24.8031 48.7767 24.0073 47.795 24.0073C46.8134 24.0073 46.0176 24.8031 46.0176 25.7848C46.0176 26.7664 46.8134 27.5622 47.795 27.5622Z" fill="#FDAB00"/>
<path d="M47.3082 17.4455C47.966 17.6857 48.3047 18.4141 48.064 19.0719C47.8234 19.7288 47.0944 20.067 46.4371 19.8273L41.4194 17.9911L42.2444 15.5925L47.3082 17.4455Z" fill="#F7941E"/>
<path d="M10.2067 33.048C10.8601 31.2627 13.0518 31.0338 14.9337 31.5985L27.1278 36.0568L30.191 35.3274L36.418 18.3004C36.9145 16.9445 37.7121 16.0151 38.789 15.5387C40.2523 14.8916 41.6464 15.3632 41.9091 15.471L42.2444 15.5926L41.4194 17.9911L40.9984 17.8372C40.9817 17.8313 40.3572 17.6083 39.7979 17.8656C39.3832 18.0568 39.0474 18.4955 38.7998 19.172L32.1047 37.4789L26.9739 38.7009L14.1714 34.0181C13.593 33.8529 12.8077 33.8156 12.5802 33.9421C12.3317 34.5852 11.6131 34.9132 10.9626 34.6744C10.3047 34.4338 9.9665 33.7063 10.2067 33.048Z" fill="#2C7BD8"/>
<path d="M6.65088 27.9921L29.1842 36.2333L36.8136 15.375L14.2808 7.1333L6.65088 27.9921Z" fill="#2C7BD8"/>
<path d="M7.86084 27.3L28.7064 34.9254L35.6476 15.949L14.802 8.32397L7.86084 27.3Z" fill="#1260AE"/>
<path d="M25.4766 33.7436L26.0932 33.9696L33.0408 14.974L32.4246 14.749L25.4766 33.7436Z" fill="#1260AE"/>
<path d="M21.6694 32.3511L22.2861 32.5765L29.2332 13.5819L28.617 13.3569L21.6694 32.3511Z" fill="#1260AE"/>
<path d="M17.8623 30.9587L18.4785 31.1847L25.4255 12.1891L24.8108 11.9646L17.8623 30.9587Z" fill="#1260AE"/>
<path d="M34.9192 15.676L35.6496 15.9437L28.7177 34.8932L27.9873 34.626L34.9192 15.676Z" fill="#2C7BD8"/>
<path d="M31.6687 14.4888L32.3991 14.7554L25.4682 33.704L24.7373 33.4368L31.6687 14.4888Z" fill="#EBEBEB"/>
<path d="M27.8821 13.1025L28.6124 13.3702L21.6816 32.3197L20.9512 32.053L27.8821 13.1025Z" fill="#EBEBEB"/>
<path d="M24.0744 11.7107L24.8053 11.9769L17.8744 30.9274L17.1436 30.6592L24.0744 11.7107Z" fill="#EBEBEB"/>
<path d="M20.2673 10.3176L20.9977 10.5853L14.0663 29.5343L13.3364 29.2671L20.2673 10.3176Z" fill="#EBEBEB"/>
<path d="M16.4602 8.92407L17.1901 9.19123L10.2587 28.1427L9.52881 27.8751L16.4602 8.92407Z" fill="#1260AE"/>
<path d="M14.0552 29.5666L14.6714 29.7916L21.6194 10.7975L21.0022 10.5715L14.0552 29.5666Z" fill="#1260AE"/>
<path d="M10.2476 28.1741L10.8647 28.4L17.8123 9.40445L17.1946 9.17798L10.2476 28.1741Z" fill="#EBEBEB"/>
<path d="M35.8731 15.7903L31.605 14.2305L7.86084 27.3001L12.2172 28.9128L35.8731 15.7903Z" fill="#2C7BD8"/>
<path d="M34.8871 15.7617L11.3955 28.6117L8.65771 27.6102L32.1842 14.7744L34.8871 15.7617Z" fill="#FDAB00"/>
<path d="M22.8554 35.5515C21.6829 38.7555 23.3304 42.3045 26.5353 43.4765C29.7402 44.6486 33.2887 43.0006 34.4598 39.7966C35.6329 36.5907 33.9848 33.0437 30.7799 31.8716C27.575 30.6991 24.027 32.3456 22.8554 35.5515Z" fill="#1260AE"/>
<path d="M25.7565 36.6123C25.1707 38.2143 25.9948 39.9888 27.5967 40.5741C29.1987 41.1604 30.9737 40.3369 31.56 38.7349C32.1453 37.1334 31.3212 35.3579 29.7193 34.7721C28.1173 34.1864 26.3423 35.0104 25.7565 36.6123Z" fill="#FFFEFF"/>
<path d="M26.7063 36.9597C26.3127 38.0371 26.8666 39.2303 27.9441 39.6244C29.0215 40.0185 30.2151 39.4646 30.6093 38.3871C31.0034 37.3097 30.449 36.1161 29.3715 35.7219C28.2941 35.3283 27.1004 35.8822 26.7063 36.9597Z" fill="#2EBE80"/>
</svg>
