<svg width="50" height="50" viewBox="0 0 50 50" fill="none" xmlns="http://www.w3.org/2000/svg">
<path fill-rule="evenodd" clip-rule="evenodd" d="M24.0858 1.40796C10.7833 1.40796 0 12.1918 0 25.4942C0 38.7874 10.7922 49.58 24.0858 49.58C37.3882 49.58 48.1716 38.7962 48.1716 25.4942H47.6275C47.6275 38.4957 37.0877 49.0359 24.0858 49.0359C11.0926 49.0359 0.544118 38.4869 0.544118 25.4942C0.544118 12.4923 11.0838 1.95208 24.0858 1.95208V1.40796Z" fill="#2C7BD8"/>
<path d="M24.0854 45.4936C35.1309 45.4936 44.085 36.5396 44.085 25.4941C44.085 14.4487 35.1309 5.49463 24.0854 5.49463C13.04 5.49463 4.08594 14.4487 4.08594 25.4941C4.08594 36.5396 13.04 45.4936 24.0854 45.4936Z" fill="#D9ECFB"/>
<path d="M23.3614 3.5549C24.3431 3.5549 25.1389 2.75911 25.1389 1.77745C25.1389 0.795792 24.3431 0 23.3614 0C22.3798 0 21.584 0.795792 21.584 1.77745C21.584 2.75911 22.3798 3.5549 23.3614 3.5549Z" fill="#FDAB00"/>
<path d="M47.7945 27.5622C48.7762 27.5622 49.572 26.7664 49.572 25.7848C49.572 24.8031 48.7762 24.0073 47.7945 24.0073C46.8129 24.0073 46.0171 24.8031 46.0171 25.7848C46.0171 26.7664 46.8129 27.5622 47.7945 27.5622Z" fill="#FDAB00"/>
<path fill-rule="evenodd" clip-rule="evenodd" d="M36.7631 14.4927C36.7631 13.3549 35.8391 12.4314 34.7013 12.4314H13.47C12.3322 12.4314 11.4082 13.3549 11.4082 14.4927V35.0873C11.4082 36.225 12.3322 37.149 13.47 37.149H34.7013C35.8391 37.149 36.7631 36.225 36.7631 35.0873V14.4927Z" fill="#2C7BD8"/>
<path fill-rule="evenodd" clip-rule="evenodd" d="M16.8401 31.944C16.8401 31.6058 16.5656 31.3313 16.2274 31.3313H15.0024C14.6642 31.3313 14.3896 31.6058 14.3896 31.944V34.3205C14.3896 34.6587 14.6642 34.9333 15.0024 34.9333H16.2274C16.5656 34.9333 16.8401 34.6587 16.8401 34.3205V31.944Z" fill="#1260AE"/>
<path fill-rule="evenodd" clip-rule="evenodd" d="M21.0359 31.944C21.0359 31.6058 20.7614 31.3313 20.4232 31.3313H19.1982C18.86 31.3313 18.5859 31.6058 18.5859 31.944V34.3205C18.5859 34.6587 18.86 34.9333 19.1982 34.9333H20.4232C20.7614 34.9333 21.0359 34.6587 21.0359 34.3205V31.944Z" fill="#1260AE"/>
<path fill-rule="evenodd" clip-rule="evenodd" d="M25.1941 31.944C25.1941 31.6058 24.9196 31.3313 24.5819 31.3313H23.3564C23.0187 31.3313 22.7441 31.6058 22.7441 31.944V34.3205C22.7441 34.6587 23.0187 34.9333 23.3564 34.9333H24.5819C24.9196 34.9333 25.1941 34.6587 25.1941 34.3205V31.944Z" fill="#1260AE"/>
<path fill-rule="evenodd" clip-rule="evenodd" d="M29.514 31.944C29.514 31.6058 29.2395 31.3313 28.9012 31.3313H27.6762C27.338 31.3313 27.0635 31.6058 27.0635 31.944V34.3205C27.0635 34.6587 27.338 34.9333 27.6762 34.9333H28.9012C29.2395 34.9333 29.514 34.6587 29.514 34.3205V31.944Z" fill="#1260AE"/>
<path fill-rule="evenodd" clip-rule="evenodd" d="M33.7825 31.944C33.7825 31.6058 33.508 31.3313 33.1698 31.3313H31.9448C31.6065 31.3313 31.332 31.6058 31.332 31.944V34.3205C31.332 34.6587 31.6065 34.9333 31.9448 34.9333H33.1698C33.508 34.9333 33.7825 34.6587 33.7825 34.3205V31.944Z" fill="#1260AE"/>
<path fill-rule="evenodd" clip-rule="evenodd" d="M16.8401 15.2775C16.8401 14.9398 16.5656 14.6653 16.2274 14.6653H15.0024C14.6642 14.6653 14.3896 14.9398 14.3896 15.2775V17.6545C14.3896 17.9922 14.6642 18.2668 15.0024 18.2668H16.2274C16.5656 18.2668 16.8401 17.9922 16.8401 17.6545V15.2775Z" fill="#1260AE"/>
<path fill-rule="evenodd" clip-rule="evenodd" d="M21.0359 15.2775C21.0359 14.9398 20.7614 14.6653 20.4232 14.6653H19.1982C18.86 14.6653 18.5859 14.9398 18.5859 15.2775V17.6545C18.5859 17.9922 18.86 18.2668 19.1982 18.2668H20.4232C20.7614 18.2668 21.0359 17.9922 21.0359 17.6545V15.2775Z" fill="#1260AE"/>
<path fill-rule="evenodd" clip-rule="evenodd" d="M25.1941 15.2775C25.1941 14.9398 24.9196 14.6653 24.5819 14.6653H23.3564C23.0187 14.6653 22.7441 14.9398 22.7441 15.2775V17.6545C22.7441 17.9922 23.0187 18.2668 23.3564 18.2668H24.5819C24.9196 18.2668 25.1941 17.9922 25.1941 17.6545V15.2775Z" fill="#1260AE"/>
<path fill-rule="evenodd" clip-rule="evenodd" d="M29.514 15.2775C29.514 14.9398 29.2395 14.6653 28.9012 14.6653H27.6762C27.338 14.6653 27.0635 14.9398 27.0635 15.2775V17.6545C27.0635 17.9922 27.338 18.2668 27.6762 18.2668H28.9012C29.2395 18.2668 29.514 17.9922 29.514 17.6545V15.2775Z" fill="#1260AE"/>
<path fill-rule="evenodd" clip-rule="evenodd" d="M33.7825 15.2775C33.7825 14.9398 33.508 14.6653 33.1698 14.6653H31.9448C31.6065 14.6653 31.332 14.9398 31.332 15.2775V17.6545C31.332 17.9922 31.6065 18.2668 31.9448 18.2668H33.1698C33.508 18.2668 33.7825 17.9922 33.7825 17.6545V15.2775Z" fill="#1260AE"/>
<path fill-rule="evenodd" clip-rule="evenodd" d="M28.7934 23.7931C29.1723 24.0068 29.4071 24.4083 29.4071 24.8431C29.4071 25.2784 29.1723 25.6799 28.7934 25.8936C26.8698 26.9789 23.889 28.6603 21.989 29.7318C21.6159 29.9421 21.1586 29.9387 20.7885 29.7225C20.4184 29.5063 20.1904 29.1098 20.1904 28.6813C20.1904 26.525 20.1904 23.1617 20.1904 21.0054C20.1904 20.5769 20.4184 20.1804 20.7885 19.9642C21.1586 19.748 21.6159 19.7446 21.989 19.9549C23.889 21.0264 26.8698 22.7078 28.7934 23.7931Z" fill="#FDAB00"/>
</svg>
