<svg width="50" height="50" viewBox="0 0 50 50" fill="none" xmlns="http://www.w3.org/2000/svg">
<path fill-rule="evenodd" clip-rule="evenodd" d="M24.0858 1.40796C10.7833 1.40796 0 12.1913 0 25.4937C0 38.7869 10.7926 49.5795 24.0858 49.5795C37.3882 49.5795 48.1716 38.7962 48.1716 25.4937H47.6275C47.6275 38.4952 37.0877 49.0354 24.0858 49.0354C11.0926 49.0354 0.544118 38.4869 0.544118 25.4937C0.544118 12.4918 11.0843 1.95208 24.0858 1.95208V1.40796Z" fill="#2C7BD8"/>
<path d="M24.0859 45.4932C35.1314 45.4932 44.0854 36.5391 44.0854 25.4937C44.0854 14.4482 35.1314 5.49414 24.0859 5.49414C13.0405 5.49414 4.08643 14.4482 4.08643 25.4937C4.08643 36.5391 13.0405 45.4932 24.0859 45.4932Z" fill="#D9ECFB"/>
<path d="M23.3619 3.5549C24.3436 3.5549 25.1394 2.75911 25.1394 1.77745C25.1394 0.795792 24.3436 0 23.3619 0C22.3803 0 21.5845 0.795792 21.5845 1.77745C21.5845 2.75911 22.3803 3.5549 23.3619 3.5549Z" fill="#FDAB00"/>
<path d="M47.795 27.5622C48.7767 27.5622 49.5725 26.7664 49.5725 25.7848C49.5725 24.8031 48.7767 24.0073 47.795 24.0073C46.8134 24.0073 46.0176 24.8031 46.0176 25.7848C46.0176 26.7664 46.8134 27.5622 47.795 27.5622Z" fill="#FDAB00"/>
<path fill-rule="evenodd" clip-rule="evenodd" d="M12.439 24.7118V38.3216C12.4473 38.8432 12.7836 39.1633 13.0532 39.3231C13.3478 39.4834 13.6507 39.5589 13.9875 39.5589H20.1904C20.4012 39.5589 20.6115 39.475 20.763 39.3231C20.9145 39.1716 20.9983 38.9613 20.9983 38.751V32.203H27.1762V38.751C27.1762 38.9613 27.2605 39.1716 27.4125 39.3231C27.564 39.475 27.7743 39.5589 27.9934 39.5589H28.9605L28.6243 39.1466C28.1698 38.5991 28.1948 37.8084 28.6831 37.2947L28.7674 37.2108C28.7586 37.1853 28.7502 37.152 28.7419 37.1265L28.6243 37.101C27.9341 36.9579 27.4547 36.3182 27.5218 35.6118L27.6223 34.45C27.6899 33.7427 28.2708 33.2045 28.9777 33.179H29.1125C29.1292 33.1535 29.1458 33.1201 29.1625 33.0863L29.0698 32.9603C28.6919 32.3628 28.8007 31.5799 29.3483 31.1255L30.2399 30.376C30.787 29.9221 31.587 29.9471 32.1002 30.4348L32.2267 30.5613C32.26 30.5446 32.3022 30.5358 32.336 30.528L32.3694 30.351C32.5125 29.6608 33.161 29.1893 33.8596 29.2481L35.0208 29.3579C35.2899 29.3746 35.5341 29.4755 35.7365 29.6275V24.7118L24.088 14.1152L12.439 24.7118Z" fill="#2C7BD8"/>
<path fill-rule="evenodd" clip-rule="evenodd" d="M38.1437 34.7779C38.0761 34.4416 37.9751 34.1132 37.8319 33.8019L38.3618 33.2377C38.5388 33.0612 38.5471 32.7749 38.3873 32.5813L37.6383 31.6891C37.4785 31.4955 37.2006 31.4534 36.9903 31.5887L36.3506 32.0092C36.056 31.8073 35.7447 31.6387 35.4074 31.5122L35.3908 30.7293C35.3829 30.4774 35.1893 30.2749 34.9447 30.2494L33.7829 30.149C33.531 30.124 33.3035 30.2916 33.2535 30.5357L33.1015 31.2686C32.7226 31.3357 32.3609 31.4455 32.0162 31.5965L31.4775 31.0916C31.2922 30.9146 31.0148 30.9068 30.8207 31.0666L29.9202 31.8151C29.7265 31.9749 29.6932 32.2529 29.8275 32.4637L30.2231 33.0779C30.0128 33.3808 29.8363 33.7176 29.7011 34.0627L29.0025 34.0793C28.7501 34.0882 28.5398 34.2818 28.5231 34.5342L28.4138 35.6955C28.3966 35.9396 28.5653 36.1671 28.8094 36.2259L29.4824 36.3602C29.5412 36.7308 29.6511 37.0842 29.802 37.421L29.3393 37.9092C29.1623 38.0945 29.1545 38.3803 29.3143 38.5656L30.0633 39.4661C30.2231 39.6597 30.5006 39.6936 30.7113 39.5588L31.2667 39.197C31.5785 39.424 31.9231 39.6092 32.2937 39.744L32.3104 40.4171C32.3192 40.6695 32.5123 40.872 32.7564 40.897L33.9182 41.0063C34.1702 41.0235 34.3981 40.8553 34.4486 40.6112L34.5912 39.9543C34.9785 39.8784 35.3658 39.7607 35.7275 39.5838L36.2241 40.0558C36.4094 40.2323 36.6873 40.2406 36.881 40.0803L37.7726 39.3318C37.9663 39.1715 38.0084 38.8941 37.8741 38.6833L37.4785 38.0774C37.6888 37.7661 37.8486 37.4377 37.9751 37.0842L38.6986 37.0676C38.9511 37.0588 39.153 36.874 39.179 36.621L39.2878 35.4597C39.305 35.2073 39.1363 34.9798 38.8922 34.9298L38.1437 34.7779ZM33.6486 37.5387C32.5883 37.4377 31.8055 36.5034 31.8981 35.4431C31.9991 34.3823 32.9334 33.5999 33.9937 33.6921C35.0545 33.7931 35.8368 34.7279 35.7447 35.7882C35.652 36.849 34.7089 37.6313 33.6486 37.5387Z" fill="#2EBE80"/>
<path fill-rule="evenodd" clip-rule="evenodd" d="M40.2641 20.9579L25.5597 7.57509C24.7269 6.81774 23.4475 6.81774 22.6141 7.57509L7.91021 20.9579C7.01805 21.7658 6.95923 23.1383 7.77589 24.0222V24.03C8.20481 24.4932 8.79403 24.7285 9.38276 24.7285C9.91364 24.7285 10.4435 24.5437 10.8641 24.1648L24.0877 12.1207L37.3185 24.1648C38.2024 24.9726 39.5823 24.9138 40.3989 24.03C41.2151 23.1383 41.148 21.7658 40.2641 20.9579Z" fill="#FDAB00"/>
<path fill-rule="evenodd" clip-rule="evenodd" d="M12.1523 9.91382H18.2215L12.1523 15.4114V9.91382Z" fill="#2EBE80"/>
</svg>
