<svg width="50" height="50" viewBox="0 0 50 50" fill="none" xmlns="http://www.w3.org/2000/svg">
<path fill-rule="evenodd" clip-rule="evenodd" d="M23.8519 1.39429C10.6786 1.39429 0 12.0729 0 25.2462C0 38.4108 10.6879 49.0982 23.8519 49.0982C37.0252 49.0982 47.7039 38.4195 47.7039 25.2462H47.165C47.165 38.122 36.7277 48.5593 23.8519 48.5593C10.985 48.5593 0.538835 38.1132 0.538835 25.2462C0.538835 12.371 10.9767 1.93312 23.8519 1.93312V1.39429Z" fill="#2C7BD8"/>
<path d="M23.8517 45.0514C34.7899 45.0514 43.6571 36.1842 43.6571 25.246C43.6571 14.3078 34.7899 5.44067 23.8517 5.44067C12.9135 5.44067 4.04639 14.3078 4.04639 25.246C4.04639 36.1842 12.9135 45.0514 23.8517 45.0514Z" fill="#D9ECFB"/>
<path d="M23.1352 3.52039C24.1073 3.52039 24.8954 2.73232 24.8954 1.76019C24.8954 0.788066 24.1073 0 23.1352 0C22.1631 0 21.375 0.788066 21.375 1.76019C21.375 2.73232 22.1631 3.52039 23.1352 3.52039Z" fill="#FDAB00"/>
<path d="M47.331 27.2946C48.3031 27.2946 49.0912 26.5065 49.0912 25.5344C49.0912 24.5622 48.3031 23.7742 47.331 23.7742C46.3589 23.7742 45.5708 24.5622 45.5708 25.5344C45.5708 26.5065 46.3589 27.2946 47.331 27.2946Z" fill="#FDAB00"/>
<path d="M23.852 41.0936C32.6043 41.0936 39.6995 33.9984 39.6995 25.246C39.6995 16.4936 32.6043 9.39844 23.852 9.39844C15.0996 9.39844 8.00439 16.4936 8.00439 25.246C8.00439 33.9984 15.0996 41.0936 23.852 41.0936Z" fill="#2C7BD8"/>
<path d="M23.8517 36.6363C30.1424 36.6363 35.242 31.5367 35.242 25.246C35.242 18.9553 30.1424 13.8557 23.8517 13.8557C17.561 13.8557 12.4614 18.9553 12.4614 25.246C12.4614 31.5367 17.561 36.6363 23.8517 36.6363Z" fill="#1260AE"/>
<path d="M38.702 14.0355C38.5656 13.9331 38.2947 13.7578 38.2214 13.8559L33.6787 20.1258C33.5423 20.3073 33.2908 20.3151 33.0384 20.1258C32.786 19.937 32.6918 19.6365 32.8282 19.4549L37.4088 13.3433C37.4826 13.2452 37.4316 13.0831 37.2952 12.9811C37.1588 12.8787 36.9889 12.8753 36.9156 12.9734L32.3345 19.085C32.1986 19.2666 31.884 19.2607 31.6316 19.0714C31.3792 18.8826 31.285 18.5821 31.4214 18.4005L36.002 12.2889C36.0758 12.1908 36.0243 12.0287 35.8884 11.9268C35.752 11.8243 35.5821 11.8209 35.5088 11.919L30.9277 18.0306C30.7918 18.2122 30.4768 18.2059 30.2248 18.0171C29.9724 17.8277 30.0884 17.6452 30.2248 17.4637L34.7632 11.3049C34.8365 11.2069 34.6175 10.9738 34.4811 10.8719C34.3452 10.77 34.1748 10.7666 34.1015 10.8646L27.868 19.1811C27.6768 19.4365 27.6336 19.786 27.7471 20.1539L27.885 20.5991C28.1879 21.5772 28.0559 22.502 27.52 23.1578L15.5185 37.8384C15.0976 38.353 15.3612 39.2379 16.1005 39.7918C16.8403 40.3462 17.7636 40.351 18.1399 39.803L28.8627 24.1646C29.3418 23.4666 30.1928 23.0802 31.2161 23.0957L31.6826 23.103C32.068 23.1093 32.3908 22.9695 32.5816 22.7151L38.8156 14.3976C38.8894 14.3001 38.8384 14.1379 38.702 14.0355Z" fill="#FDAB00"/>
<path d="M20.2008 15.3962C17.894 12.1753 13.5236 10.2175 11.1037 11.951C8.68376 13.684 9.13134 18.452 11.4381 21.6724C13.143 24.0525 15.3852 24.919 17.4163 24.5102C18.1629 24.3602 18.9284 24.6491 19.3454 25.2865L28.8323 39.784C29.1969 40.3403 30.1197 40.3549 30.8711 39.817C31.6226 39.2787 31.9051 38.4 31.4954 37.8763L20.8998 24.3277C20.409 23.7 20.4051 22.8403 20.8376 22.1714C22.0085 20.3612 21.9707 17.867 20.2008 15.3962Z" fill="#2EBE80"/>
</svg>
