<svg width="50" height="50" viewBox="0 0 50 50" fill="none" xmlns="http://www.w3.org/2000/svg">
<path fill-rule="evenodd" clip-rule="evenodd" d="M23.8519 1.39429C10.6786 1.39429 0 12.0734 0 25.2462C0 38.4108 10.6874 49.0987 23.8519 49.0987C37.0252 49.0987 47.7039 38.4195 47.7039 25.2462H47.1651C47.1651 38.122 36.7277 48.5593 23.8519 48.5593C10.985 48.5593 0.538835 38.1132 0.538835 25.2462C0.538835 12.371 10.9762 1.93312 23.8519 1.93312V1.39429Z" fill="#2C7BD8"/>
<path d="M23.8522 45.0514C34.7904 45.0514 43.6575 36.1842 43.6575 25.246C43.6575 14.3078 34.7904 5.44067 23.8522 5.44067C12.914 5.44067 4.04688 14.3078 4.04688 25.246C4.04688 36.1842 12.914 45.0514 23.8522 45.0514Z" fill="#D9ECFB"/>
<path d="M23.1352 3.52039C24.1073 3.52039 24.8954 2.73232 24.8954 1.76019C24.8954 0.788066 24.1073 0 23.1352 0C22.1631 0 21.375 0.788066 21.375 1.76019C21.375 2.73232 22.1631 3.52039 23.1352 3.52039Z" fill="#FDAB00"/>
<path d="M47.3305 27.2946C48.3026 27.2946 49.0907 26.5065 49.0907 25.5344C49.0907 24.5622 48.3026 23.7742 47.3305 23.7742C46.3584 23.7742 45.5703 24.5622 45.5703 25.5344C45.5703 26.5065 46.3584 27.2946 47.3305 27.2946Z" fill="#FDAB00"/>
<path fill-rule="evenodd" clip-rule="evenodd" d="M24.2695 31.4243H28.1987C27.5826 33.1835 26.7059 34.7656 25.6249 36.1059C25.1841 36.1675 24.7263 36.2204 24.2695 36.235V31.4243Z" fill="#FDAB00"/>
<path fill-rule="evenodd" clip-rule="evenodd" d="M21.765 36.0457C20.715 34.7209 19.8548 33.1602 19.2461 31.4243H23.4325V36.235C22.8621 36.2204 22.3063 36.1515 21.765 36.0457Z" fill="#2EBE80"/>
<path fill-rule="evenodd" clip-rule="evenodd" d="M31.6228 33.0233C30.3151 34.3326 28.6704 35.3151 26.835 35.8321C27.7641 34.5306 28.5097 33.0462 29.0583 31.4243H32.9486C32.5602 32.003 32.1102 32.536 31.6228 33.0233Z" fill="#2C7BD8"/>
<path fill-rule="evenodd" clip-rule="evenodd" d="M14.7471 31.4243H18.3781C18.9199 32.9996 19.6422 34.4544 20.5325 35.734C18.8277 35.2 17.3048 34.2568 16.0791 33.0233C15.5844 32.536 15.1427 32.003 14.7471 31.4243Z" fill="#2C7BD8"/>
<path fill-rule="evenodd" clip-rule="evenodd" d="M30.0411 25.6699H34.845C34.7766 27.4806 34.2654 29.1777 33.4207 30.6699V30.617H29.3096C29.7513 29.0573 30.0018 27.3971 30.0411 25.6699Z" fill="#2C7BD8"/>
<path fill-rule="evenodd" clip-rule="evenodd" d="M24.2695 30.617V25.6699H29.2331C29.1957 27.4044 28.9292 29.0724 28.4652 30.617H24.2695Z" fill="#FDAB00"/>
<path fill-rule="evenodd" clip-rule="evenodd" d="M18.2031 25.6699H23.4327V30.617H18.9721C18.5075 29.0724 18.2492 27.4044 18.2031 25.6699Z" fill="#2EBE80"/>
<path fill-rule="evenodd" clip-rule="evenodd" d="M12.8584 25.6699H17.3958C17.4336 27.3971 17.6924 29.0573 18.1336 30.617H14.2521C13.422 29.1408 12.9264 27.4656 12.8584 25.6699Z" fill="#2C7BD8"/>
<path fill-rule="evenodd" clip-rule="evenodd" d="M30.0411 24.8315C30.0018 23.0961 29.7513 21.4291 29.3027 19.8674H33.4435C34.2741 21.3446 34.7765 23.0271 34.845 24.8315H30.0411Z" fill="#2C7BD8"/>
<path fill-rule="evenodd" clip-rule="evenodd" d="M17.3958 24.8315H12.8584C12.9264 23.0271 13.422 21.3446 14.2589 19.8674H18.1336C17.6924 21.4291 17.4336 23.0961 17.3958 24.8315Z" fill="#2C7BD8"/>
<path fill-rule="evenodd" clip-rule="evenodd" d="M23.4327 19.8674V24.8315H18.2031C18.2492 23.0888 18.5075 21.4208 18.9793 19.8674H23.4327Z" fill="#FDAB00"/>
<path fill-rule="evenodd" clip-rule="evenodd" d="M28.4569 19.8674C28.9292 21.4208 29.1957 23.0888 29.2331 24.8315H24.2695V19.8674H28.4569Z" fill="#2EBE80"/>
<path fill-rule="evenodd" clip-rule="evenodd" d="M16.0782 17.4627C17.3039 16.2297 18.8267 15.2928 20.5316 14.7603C19.6413 16.0316 18.919 17.485 18.385 19.0617H14.7539C15.1495 18.4904 15.5908 17.9573 16.0782 17.4627Z" fill="#2C7BD8"/>
<path fill-rule="evenodd" clip-rule="evenodd" d="M32.9403 19.0616H29.051C28.5097 17.4471 27.7568 15.9704 26.835 14.6611C28.6777 15.1786 30.3151 16.1606 31.6228 17.4626C32.1102 17.9572 32.552 18.4903 32.9403 19.0616Z" fill="#2C7BD8"/>
<path fill-rule="evenodd" clip-rule="evenodd" d="M23.4325 19.0617H19.2461C19.8621 17.3335 20.715 15.7724 21.765 14.4476C22.3063 14.3413 22.8621 14.2806 23.4325 14.2578V19.0617Z" fill="#FDAB00"/>
<path fill-rule="evenodd" clip-rule="evenodd" d="M24.2695 19.0617V14.2578C24.7263 14.2729 25.1841 14.319 25.6249 14.3947C26.6991 15.7185 27.5739 17.3025 28.1987 19.0617H24.2695Z" fill="#2EBE80"/>
<path fill-rule="evenodd" clip-rule="evenodd" d="M32.7829 37.7744C37.9635 34.5414 40.4169 28.004 39.1217 21.8783L39.0606 21.8608C39.0761 21.8064 39.0917 21.7278 39.1276 21.6302L41.9048 22.5263C41.9883 21.3526 42.0844 21.5967 40.3504 20.3948C38.8295 19.3302 39.1844 20.1152 38.9169 18.2822C38.6858 16.6666 37.9154 14.2967 37.747 13.0161C38.6965 12.7836 43.1883 13.6783 44.663 13.5894C44.5989 13.2632 44.5276 12.9928 44.448 12.637C44.3169 12.0574 44.4014 12.1652 43.7247 11.886C42.2523 11.2846 37.5698 9.40255 36.7271 8.92488C36.4159 7.70303 35.7383 4.35352 35.0446 3.56129C34.7174 3.17488 34.0849 2.62585 33.6999 3.14721C32.7596 4.41323 33.7975 7.0943 34.2781 8.9642C34.4766 9.71274 34.4023 9.54187 33.8892 10.1584C33.3285 10.8278 29.2688 15.5346 29.2135 15.9511C29.1892 16.0943 29.4582 17.1215 29.5159 17.3205C30.0344 17.055 30.5402 16.7191 31.0295 16.3783L33.9586 14.4559C34.3839 14.1375 34.9674 13.7914 35.4227 13.5399C35.6198 14.4132 35.8484 15.2865 36.048 16.1768C37.0747 20.7025 37.6659 19.2671 36.5048 21.4356C35.8552 22.6448 35.2751 23.0928 36.1761 23.9448L37.8392 22.3972C38.9363 27.0841 36.9043 32.9448 33.4052 35.8826C28.8844 39.6817 22.8892 40.4982 17.6242 37.7909C12.715 35.2608 9.90379 30.1186 10.0106 24.8404C10.1363 18.4933 13.9688 14.1705 19.23 11.7831C17.1227 11.7885 13.1834 15.2744 11.6688 17.772C3.69893 30.9079 18.6324 46.5967 32.7829 37.7744Z" fill="#FDAB00"/>
<path d="M12.3749 38.2611C13.994 38.2611 15.3065 36.9486 15.3065 35.3295C15.3065 33.7104 13.994 32.3979 12.3749 32.3979C10.7559 32.3979 9.44336 33.7104 9.44336 35.3295C9.44336 36.9486 10.7559 38.2611 12.3749 38.2611Z" fill="#2C7BD8"/>
</svg>
