<svg width="50" height="50" viewBox="0 0 50 50" fill="none" xmlns="http://www.w3.org/2000/svg">
<path fill-rule="evenodd" clip-rule="evenodd" d="M24.0863 1.40784C10.7838 1.40784 0 12.1917 0 25.4936C0 38.7873 10.7926 49.5799 24.0863 49.5799C37.3882 49.5799 48.1721 38.7961 48.1721 25.4936H47.6279C47.6279 38.4956 37.0878 49.0358 24.0863 49.0358C11.0931 49.0358 0.544118 38.4868 0.544118 25.4936C0.544118 12.4922 11.0843 1.95195 24.0863 1.95195V1.40784V1.40784Z" fill="#2C7BD8"/>
<path d="M24.0864 45.4932C35.1318 45.4932 44.0859 36.5391 44.0859 25.4937C44.0859 14.4482 35.1318 5.49414 24.0864 5.49414C13.041 5.49414 4.08691 14.4482 4.08691 25.4937C4.08691 36.5391 13.041 45.4932 24.0864 45.4932Z" fill="#D9ECFB"/>
<path d="M23.3619 3.5549C24.3436 3.5549 25.1394 2.75911 25.1394 1.77745C25.1394 0.795792 24.3436 0 23.3619 0C22.3803 0 21.5845 0.795792 21.5845 1.77745C21.5845 2.75911 22.3803 3.5549 23.3619 3.5549Z" fill="#FDAB00"/>
<path d="M47.795 27.5622C48.7767 27.5622 49.5725 26.7664 49.5725 25.7848C49.5725 24.8031 48.7767 24.0073 47.795 24.0073C46.8134 24.0073 46.0176 24.8031 46.0176 25.7848C46.0176 26.7664 46.8134 27.5622 47.795 27.5622Z" fill="#FDAB00"/>
<path fill-rule="evenodd" clip-rule="evenodd" d="M40.5264 11.9269C40.5264 11.0598 39.8225 10.3558 38.9553 10.3558H9.21659C8.34943 10.3558 7.64551 11.0598 7.64551 11.9269V39.0602C7.64551 39.9274 8.34943 40.6318 9.21659 40.6318H38.9553C39.8225 40.6318 40.5264 39.9274 40.5264 39.0602V11.9269V11.9269ZM38.144 17.3852H10.0279V37.9975H38.144V17.3852Z" fill="#2C7BD8"/>
<path fill-rule="evenodd" clip-rule="evenodd" d="M19.8308 37.1862H11.2788C11.2788 36.6607 11.3126 36.1353 11.3803 35.6127C12.4587 35.4387 13.5367 35.2603 14.6136 35.0774C14.8489 34.075 15.2494 33.1176 15.8004 32.2446C15.169 31.3617 14.5347 30.4818 13.8965 29.6039C14.5474 28.771 15.3033 28.023 16.1455 27.3789C17.0327 28.0103 17.9224 28.6382 18.8151 29.2622C19.6979 28.7176 20.6656 28.321 21.6788 28.0887C21.8636 27.0235 22.044 25.9573 22.2205 24.8902C23.2764 24.7563 24.345 24.7563 25.4014 24.8902C25.5773 25.9573 25.7577 27.0235 25.9425 28.0887C26.9558 28.321 27.9239 28.7176 28.8068 29.2622C29.6989 28.6382 30.5886 28.0103 31.4759 27.3789C32.318 28.023 33.0739 28.771 33.7249 29.6039C33.0871 30.4818 32.4523 31.3617 31.821 32.2446C32.3719 33.1176 32.7724 34.075 33.0077 35.0774C34.0847 35.2603 35.1626 35.4387 36.2411 35.6127C36.3087 36.1353 36.3425 36.6607 36.3425 37.1862H27.7906C27.7906 35.0132 26.0072 33.2495 23.8107 33.2495C21.6141 33.2495 19.8308 35.0132 19.8308 37.1862Z" fill="#FDAB00"/>
<path d="M14.2052 22.9701C15.469 22.9701 16.4935 21.9855 16.4935 20.771C16.4935 19.5566 15.469 18.572 14.2052 18.572C12.9415 18.572 11.917 19.5566 11.917 20.771C11.917 21.9855 12.9415 22.9701 14.2052 22.9701Z" fill="#2EBE80"/>
<path fill-rule="evenodd" clip-rule="evenodd" d="M31.1619 13.5471C31.1619 13.226 30.9011 12.9647 30.5801 12.9647H29.4154C29.0938 12.9647 28.833 13.226 28.833 13.5471V14.7118C28.833 15.0333 29.0938 15.2941 29.4154 15.2941H30.5801C30.9011 15.2941 31.1619 15.0333 31.1619 14.7118V13.5471Z" fill="#2EBE80"/>
<path fill-rule="evenodd" clip-rule="evenodd" d="M34.8021 13.5471C34.8021 13.226 34.5408 12.9647 34.2197 12.9647H33.055C32.7334 12.9647 32.4727 13.226 32.4727 13.5471V14.7118C32.4727 15.0333 32.7334 15.2941 33.055 15.2941H34.2197C34.5408 15.2941 34.8021 15.0333 34.8021 14.7118V13.5471Z" fill="#FDAB00"/>
<path fill-rule="evenodd" clip-rule="evenodd" d="M38.161 13.5471C38.161 13.226 37.8997 12.9647 37.5786 12.9647H36.4139C36.0923 12.9647 35.8315 13.226 35.8315 13.5471V14.7118C35.8315 15.0333 36.0923 15.2941 36.4139 15.2941H37.5786C37.8997 15.2941 38.161 15.0333 38.161 14.7118V13.5471Z" fill="white"/>
</svg>
