<svg width="50" height="50" viewBox="0 0 50 50" fill="none" xmlns="http://www.w3.org/2000/svg">
<path fill-rule="evenodd" clip-rule="evenodd" d="M24.0863 1.47888C10.7838 1.47888 0 12.2627 0 25.5652C0 38.8583 10.7926 49.6509 24.0863 49.6509C37.3882 49.6509 48.1721 38.8671 48.1721 25.5652H47.6279C47.6279 38.5666 37.0878 49.1068 24.0863 49.1068C11.0931 49.1068 0.544118 38.5578 0.544118 25.5652C0.544118 12.5632 11.0843 2.023 24.0863 2.023V1.47888V1.47888Z" fill="#2C7BD8"/>
<path d="M24.0864 45.5647C35.1318 45.5647 44.0859 36.6106 44.0859 25.5652C44.0859 14.5198 35.1318 5.56567 24.0864 5.56567C13.041 5.56567 4.08691 14.5198 4.08691 25.5652C4.08691 36.6106 13.041 45.5647 24.0864 45.5647Z" fill="#D9ECFB"/>
<path d="M23.3619 3.62595C24.3436 3.62595 25.1394 2.83015 25.1394 1.8485C25.1394 0.866837 24.3436 0.0710449 23.3619 0.0710449C22.3803 0.0710449 21.5845 0.866837 21.5845 1.8485C21.5845 2.83015 22.3803 3.62595 23.3619 3.62595Z" fill="#FDAB00"/>
<path d="M47.795 27.6333C48.7767 27.6333 49.5725 26.8375 49.5725 25.8558C49.5725 24.8742 48.7767 24.0784 47.795 24.0784C46.8134 24.0784 46.0176 24.8742 46.0176 25.8558C46.0176 26.8375 46.8134 27.6333 47.795 27.6333Z" fill="#FDAB00"/>
<path fill-rule="evenodd" clip-rule="evenodd" d="M26.8369 19.3348C26.8369 19.3348 35.857 9.11374 39.3477 5.15884C40.1026 4.30345 41.4017 4.20345 42.2791 4.93384C42.3928 5.02894 42.5075 5.12452 42.6222 5.21962C43.06 5.58433 43.3316 6.1108 43.3757 6.67894C43.4193 7.24756 43.2311 7.80933 42.8536 8.23629C39.3075 12.2544 30.4232 22.3216 30.4232 22.3216L28.9521 29.5221L17.3281 33.6348L19.7365 21.8471L26.8369 19.3348V19.3348Z" fill="#FDAB00"/>
<path fill-rule="evenodd" clip-rule="evenodd" d="M24.7518 26.0235L23.9371 25.3451L16.9209 33.2956L17.7356 33.974L24.7518 26.0235V26.0235Z" fill="#D9ECFB"/>
<path fill-rule="evenodd" clip-rule="evenodd" d="M39.5416 0L24.6333 17.477L34.3505 25.298L49.2583 7.82108L39.5416 0V0Z" fill="#2C7BD8"/>
<path fill-rule="evenodd" clip-rule="evenodd" d="M31.5041 21.8216L27.1644 18.1731L26.4424 19.0324L30.7816 22.6809L31.5041 21.8216Z" fill="#2EBE80"/>
<path d="M41.0879 7.88378C41.7171 7.88378 42.2272 7.37373 42.2272 6.74456C42.2272 6.11539 41.7171 5.60535 41.0879 5.60535C40.4588 5.60535 39.9487 6.11539 39.9487 6.74456C39.9487 7.37373 40.4588 7.88378 41.0879 7.88378Z" fill="#D9ECFB"/>
<path fill-rule="evenodd" clip-rule="evenodd" d="M25.2405 24.5074C25.867 25.0446 25.9395 25.9893 25.4023 26.6157C24.8655 27.2427 23.9204 27.3152 23.2939 26.778C22.6675 26.2407 22.5944 25.2956 23.1317 24.6692C23.669 24.0427 24.614 23.9701 25.2405 24.5074V24.5074Z" fill="#D9ECFB"/>
<path fill-rule="evenodd" clip-rule="evenodd" d="M39.2889 39.9715C37.1159 30.1465 22.5722 39.2882 16.7507 34.6892C12.9766 31.7073 16.857 21.3171 13.782 16.5348C12.4958 14.5353 9.99331 13.5161 5.20605 14.4304V16.5348C20.358 13.2598 10.7796 31.0392 16.1526 35.3274C21.8904 39.9068 34.9232 31.2823 37.1992 39.9715H39.2889V39.9715Z" fill="#FDAB00"/>
<path d="M16.1913 34.6187H4.85449V35.0584H16.1913V34.6187Z" fill="#2C7BD8"/>
<path fill-rule="evenodd" clip-rule="evenodd" d="M15.9668 34.6187V46.1951H16.4153V34.6187H15.9668Z" fill="#2C7BD8"/>
<path d="M5.20603 34.349H4.08643V35.3279H5.20603V34.349Z" fill="#2EBE80"/>
<path d="M16.751 45.7059H15.6313V46.6849H16.751V45.7059Z" fill="#2EBE80"/>
<path d="M17.4345 33.6299H14.9478V36.0466H17.4345V33.6299Z" fill="#2EBE80"/>
</svg>
