<svg width="50" height="50" viewBox="0 0 50 50" fill="none" xmlns="http://www.w3.org/2000/svg">
<path fill-rule="evenodd" clip-rule="evenodd" d="M24.0858 1.40735C10.7833 1.40735 0 12.1912 0 25.4936C0 38.7868 10.7926 49.5794 24.0858 49.5794C37.3882 49.5794 48.1716 38.7956 48.1716 25.4936H47.6275C47.6275 38.4951 37.0877 49.0353 24.0858 49.0353C11.0926 49.0353 0.544118 38.4863 0.544118 25.4936C0.544118 12.4917 11.0843 1.95147 24.0858 1.95147V1.40735V1.40735Z" fill="#2C7BD8"/>
<path d="M24.0854 45.4932C35.1309 45.4932 44.085 36.5391 44.085 25.4937C44.085 14.4482 35.1309 5.49414 24.0854 5.49414C13.04 5.49414 4.08594 14.4482 4.08594 25.4937C4.08594 36.5391 13.04 45.4932 24.0854 45.4932Z" fill="#D9ECFB"/>
<path d="M23.3614 3.5549C24.3431 3.5549 25.1389 2.75911 25.1389 1.77745C25.1389 0.795792 24.3431 0 23.3614 0C22.3798 0 21.584 0.795792 21.584 1.77745C21.584 2.75911 22.3798 3.5549 23.3614 3.5549Z" fill="#FDAB00"/>
<path d="M47.795 27.5617C48.7767 27.5617 49.5725 26.7659 49.5725 25.7843C49.5725 24.8026 48.7767 24.0068 47.795 24.0068C46.8134 24.0068 46.0176 24.8026 46.0176 25.7843C46.0176 26.7659 46.8134 27.5617 47.795 27.5617Z" fill="#FDAB00"/>
<path fill-rule="evenodd" clip-rule="evenodd" d="M31.4423 20.3941L31.4413 20.3901L25.9315 22.0813L24.2707 16.672L24.2692 16.6725C22.407 10.9671 16.3065 7.78475 10.5457 9.55338C4.72513 11.3401 1.45013 17.5161 3.23689 23.3367C5.01483 29.1279 11.1256 32.396 16.9202 30.6759L16.9207 30.6764L22.2398 29.0436L23.9075 34.4774L23.9099 34.4764C25.7815 40.1671 31.8722 43.3377 37.6251 41.5715C43.4457 39.7848 46.7207 33.6088 44.934 27.7882C43.1761 22.0607 37.18 18.8014 31.4423 20.3941ZM18.9438 18.3073C17.9854 15.5416 15.0006 14.0107 12.18 14.8769C9.29719 15.7617 7.67562 18.82 8.56042 21.7024C9.43542 24.5534 12.431 26.1696 15.2859 25.3519L15.2854 25.3495L20.6045 23.7166L18.9438 18.3073V18.3073ZM29.2271 32.8181C30.1854 35.5833 33.1702 37.1142 35.9913 36.248C38.8737 35.3632 40.4952 32.3049 39.6104 29.422C38.7447 26.6014 35.8031 24.9897 32.9766 25.7475L27.5663 27.4083L29.2271 32.8181V32.8181Z" fill="#2C7BD8"/>
<path d="M38.5446 8.67651H20.8721V9.45298H38.5446V8.67651Z" fill="#FDAB00"/>
<path fill-rule="evenodd" clip-rule="evenodd" d="M38.9327 20.4005V10.3397H38.1562V20.4005H38.9327Z" fill="#FDAB00"/>
<path d="M20.6074 37.1466C20.599 37.1466 20.5912 37.1485 20.5829 37.1485C20.7382 36.8422 20.825 36.5049 20.825 36.15C20.825 34.7583 19.5015 33.6304 17.8686 33.6304C17.2917 33.6304 16.7549 33.7735 16.2995 34.0172C15.6838 32.7422 14.2137 31.8436 12.4951 31.8436C10.223 31.8436 8.38138 33.4132 8.38138 35.3495C8.38138 35.4956 8.3956 35.6392 8.41569 35.7809C8.40442 35.7804 8.39315 35.7794 8.38138 35.7794C6.85834 35.7794 5.62305 36.8319 5.62305 38.1299C5.62305 39.4279 6.85834 40.4804 8.38138 40.4804H20.6074C21.6878 40.4804 22.5637 39.7338 22.5637 38.8132C22.5637 37.8926 21.6878 37.1466 20.6074 37.1466V37.1466Z" fill="#FDAB00"/>
<path d="M38.5444 43.0525H17.292V43.579H38.5444V43.0525Z" fill="#2EBE80"/>
<path d="M11.1012 41.8558H8.56836V42.3823H11.1012V41.8558Z" fill="#2EBE80"/>
<path d="M38.9499 42.877H37.9048V43.7603H38.9499V42.877Z" fill="#2C7BD8"/>
<path d="M9.25357 41.6191H8.21582V42.6902H9.25357V41.6191Z" fill="#2C7BD8"/>
<path d="M17.2925 40.4803H16.7793V43.5789H17.2925V40.4803Z" fill="#2EBE80"/>
<path d="M14.2857 40.4803H13.7725V45.4931H14.2857V40.4803Z" fill="#2EBE80"/>
<path d="M14.5431 45.1824H13.5V46.1039H14.5431V45.1824Z" fill="#2C7BD8"/>
<path d="M11.1011 40.4803H10.5879V42.3818H11.1011V40.4803Z" fill="#2EBE80"/>
<path d="M38.5444 12.6867C40.5448 12.6867 42.1665 11.0651 42.1665 9.06469C42.1665 7.06428 40.5448 5.44263 38.5444 5.44263C36.544 5.44263 34.9224 7.06428 34.9224 9.06469C34.9224 11.0651 36.544 12.6867 38.5444 12.6867Z" fill="#2C7BD8"/>
<path fill-rule="evenodd" clip-rule="evenodd" d="M38.5446 3.52405L43.3432 6.29415V11.8353L38.5446 14.6054L33.7461 11.8353V6.29415L38.5446 3.52405Z" fill="#2C7BD8"/>
<path d="M38.5446 12.2314C40.2935 12.2314 41.7113 10.8136 41.7113 9.06474C41.7113 7.31584 40.2935 5.89807 38.5446 5.89807C36.7957 5.89807 35.3779 7.31584 35.3779 9.06474C35.3779 10.8136 36.7957 12.2314 38.5446 12.2314Z" fill="#D9ECFB"/>
<path d="M38.5448 11.0348C39.6329 11.0348 40.5149 10.1528 40.5149 9.0647C40.5149 7.97665 39.6329 7.0946 38.5448 7.0946C37.4567 7.0946 36.5747 7.97665 36.5747 9.0647C36.5747 10.1528 37.4567 11.0348 38.5448 11.0348Z" fill="#2EBE80"/>
</svg>
