<svg width="50" height="50" viewBox="0 0 50 50" fill="none" xmlns="http://www.w3.org/2000/svg">
<path fill-rule="evenodd" clip-rule="evenodd" d="M24.0858 1.40784C10.7833 1.40784 0 12.1917 0 25.4941C0 38.7872 10.7926 49.5799 24.0858 49.5799C37.3882 49.5799 48.1716 38.7961 48.1716 25.4941H47.6275C47.6275 38.4956 37.0877 49.0358 24.0858 49.0358C11.0926 49.0358 0.544118 38.4868 0.544118 25.4941C0.544118 12.4922 11.0843 1.95195 24.0858 1.95195V1.40784V1.40784Z" fill="#2C7BD8"/>
<path d="M24.0859 45.4936C35.1314 45.4936 44.0854 36.5396 44.0854 25.4941C44.0854 14.4487 35.1314 5.49463 24.0859 5.49463C13.0405 5.49463 4.08643 14.4487 4.08643 25.4941C4.08643 36.5396 13.0405 45.4936 24.0859 45.4936Z" fill="#D9ECFB"/>
<path d="M23.3619 3.5549C24.3436 3.5549 25.1394 2.75911 25.1394 1.77745C25.1394 0.795792 24.3436 0 23.3619 0C22.3803 0 21.5845 0.795792 21.5845 1.77745C21.5845 2.75911 22.3803 3.5549 23.3619 3.5549Z" fill="#FDAB00"/>
<path d="M47.795 27.5622C48.7767 27.5622 49.5725 26.7664 49.5725 25.7848C49.5725 24.8031 48.7767 24.0073 47.795 24.0073C46.8134 24.0073 46.0176 24.8031 46.0176 25.7848C46.0176 26.7664 46.8134 27.5622 47.795 27.5622Z" fill="#FDAB00"/>
<path d="M36.9103 33.8809H11.7505V35.8358H36.9103V33.8809Z" fill="#2EBE80"/>
<path d="M36.9103 27.3064H27.4961V29.0182H36.9103V27.3064Z" fill="#2C7BD8"/>
<path d="M36.9103 21.9456H27.4961V23.6367H36.9103V21.9456Z" fill="#FDAB00"/>
<path fill-rule="evenodd" clip-rule="evenodd" d="M40.5264 11.9274C40.5264 11.0602 39.8225 10.3558 38.9553 10.3558H9.2161C8.34894 10.3558 7.64502 11.0602 7.64502 11.9274V39.0607C7.64502 39.9279 8.34894 40.6318 9.2161 40.6318H38.9553C39.8225 40.6318 40.5264 39.9279 40.5264 39.0607V11.9274V11.9274ZM38.144 17.3852H10.0274V37.9975H38.144V17.3852V17.3852Z" fill="#2C7BD8"/>
<path d="M23.0865 20.5466C21.7958 19.4083 20.136 18.6809 18.3086 18.5667V25.3245L23.0865 20.5466Z" fill="#2EBE80"/>
<path d="M18.3086 26.4289V32.4211C21.5326 32.2196 24.0856 29.5421 24.0856 26.2671C24.0856 24.7044 23.5037 23.2784 22.5454 22.1917L18.3086 26.4289V26.4289Z" fill="#FDAB00"/>
<path d="M11.7505 26.2672C11.7505 29.5422 14.3034 32.2197 17.5279 32.4211V20.1128C14.3034 20.3143 11.7505 22.9922 11.7505 26.2672Z" fill="#2C7BD8"/>
<path fill-rule="evenodd" clip-rule="evenodd" d="M31.1619 13.5471C31.1619 13.226 30.9011 12.9652 30.5796 12.9652H29.4149C29.0938 12.9652 28.8325 13.226 28.8325 13.5471V14.7118C28.8325 15.0333 29.0938 15.2941 29.4149 15.2941H30.5796C30.9011 15.2941 31.1619 15.0333 31.1619 14.7118V13.5471Z" fill="#2EBE80"/>
<path fill-rule="evenodd" clip-rule="evenodd" d="M34.8016 13.5471C34.8016 13.226 34.5408 12.9652 34.2192 12.9652H33.055C32.7334 12.9652 32.4727 13.226 32.4727 13.5471V14.7118C32.4727 15.0333 32.7334 15.2941 33.055 15.2941H34.2192C34.5408 15.2941 34.8016 15.0333 34.8016 14.7118V13.5471Z" fill="#FDAB00"/>
<path fill-rule="evenodd" clip-rule="evenodd" d="M38.1605 13.5471C38.1605 13.226 37.8997 12.9652 37.5781 12.9652H36.4139C36.0923 12.9652 35.8315 13.226 35.8315 13.5471V14.7118C35.8315 15.0333 36.0923 15.2941 36.4139 15.2941H37.5781C37.8997 15.2941 38.1605 15.0333 38.1605 14.7118V13.5471Z" fill="white"/>
</svg>
