<svg width="50" height="50" viewBox="0 0 50 50" fill="none" xmlns="http://www.w3.org/2000/svg">
<path fill-rule="evenodd" clip-rule="evenodd" d="M24.0858 1.40784C10.7833 1.40784 0 12.1917 0 25.4936C0 38.7873 10.7926 49.5799 24.0858 49.5799C37.3882 49.5799 48.1716 38.7961 48.1716 25.4936H47.6275C47.6275 38.4956 37.0877 49.0358 24.0858 49.0358C11.0926 49.0358 0.544118 38.4868 0.544118 25.4936C0.544118 12.4922 11.0843 1.95195 24.0858 1.95195V1.40784V1.40784Z" fill="#2C7BD8"/>
<path d="M24.0854 45.4932C35.1309 45.4932 44.085 36.5391 44.085 25.4937C44.085 14.4482 35.1309 5.49414 24.0854 5.49414C13.04 5.49414 4.08594 14.4482 4.08594 25.4937C4.08594 36.5391 13.04 45.4932 24.0854 45.4932Z" fill="#D9ECFB"/>
<path d="M23.3614 3.5549C24.3431 3.5549 25.1389 2.75911 25.1389 1.77745C25.1389 0.795792 24.3431 0 23.3614 0C22.3798 0 21.584 0.795792 21.584 1.77745C21.584 2.75911 22.3798 3.5549 23.3614 3.5549Z" fill="#FDAB00"/>
<path d="M47.795 27.5622C48.7767 27.5622 49.5725 26.7664 49.5725 25.7848C49.5725 24.8031 48.7767 24.0073 47.795 24.0073C46.8134 24.0073 46.0176 24.8031 46.0176 25.7848C46.0176 26.7664 46.8134 27.5622 47.795 27.5622Z" fill="#FDAB00"/>
<path fill-rule="evenodd" clip-rule="evenodd" d="M34.3418 8.98235C34.3418 7.13039 32.833 5.62646 30.9747 5.62646H17.1972C15.3389 5.62646 13.8301 7.13039 13.8301 8.98235V42.1373C13.8301 43.9897 15.3389 45.4936 17.1972 45.4936H30.9747C32.833 45.4936 34.3418 43.9897 34.3418 42.1373V8.98235ZM33.0541 9.89558C33.0541 8.14509 32.3512 6.7245 30.5953 6.7245H17.5766C15.8208 6.7245 15.1526 8.14509 15.1526 9.89558V41.224C15.1526 42.9745 15.8208 44.0995 17.5766 44.0995H30.5953C32.3512 44.0995 33.0541 42.9745 33.0541 41.224V9.89558Z" fill="#2C7BD8"/>
<path d="M17.1997 15.5211H12.4512V35.6692H17.1997V15.5211Z" fill="#D9ECFB"/>
<path d="M35.8731 15.5211H31.2344V35.6692H35.8731V15.5211Z" fill="#D9ECFB"/>
<path fill-rule="evenodd" clip-rule="evenodd" d="M27.5881 8.54949C27.5881 8.28429 27.3729 8.0686 27.1072 8.0686H21.5219C21.2562 8.0686 21.041 8.28429 21.041 8.54949C21.041 8.81517 21.2562 9.03086 21.5219 9.03086H27.1072C27.3729 9.03086 27.5881 8.81517 27.5881 8.54949Z" fill="#FDAB00"/>
<path d="M16.6145 35.4805C16.3454 35.4805 16.0841 35.3937 15.8297 35.2212L4.66938 27.3922C4.29585 27.104 4.0385 26.8069 3.89634 26.4996C3.75418 26.1927 3.68359 25.8471 3.68359 25.4633C3.68359 25.08 3.7581 24.7202 3.90761 24.3844C4.05712 24.0481 4.26595 23.7942 4.53506 23.6211L15.8076 16.051C16.0914 15.8594 16.3679 15.7633 16.6365 15.7633C16.8311 15.7633 17.0253 15.8162 17.2194 15.9216C17.4135 16.027 17.5856 16.1662 17.7346 16.3393C17.8841 16.531 18.0037 16.7662 18.0934 17.0442C18.1831 17.3226 18.2277 17.6055 18.2277 17.8932C18.213 18.2579 18.138 18.6035 18.0037 18.9295C17.8694 19.256 17.6753 19.5055 17.4208 19.678L8.72575 25.5211L17.3537 31.5658C17.6228 31.7574 17.8321 32.0167 17.9811 32.3427C18.1307 32.6692 18.2052 33.0241 18.2052 33.4079C18.2052 34.0025 18.0449 34.4966 17.7238 34.8903C17.4022 35.2834 17.0326 35.4805 16.6145 35.4805V35.4805Z" fill="#FDAB00"/>
<path d="M20.5276 38.1711C20.0673 38.1711 19.6644 37.9858 19.3193 37.6148C18.9996 37.2951 18.8398 36.9049 18.8398 36.4447C18.8398 36.3167 18.8717 36.1378 18.9354 35.9074L25.8796 14.2701C25.9947 13.9123 26.209 13.6246 26.5222 13.4069C26.8354 13.1898 27.1776 13.0809 27.5482 13.0809C28.0472 13.0809 28.4624 13.2662 28.7952 13.6373C29.1148 13.9951 29.2746 14.43 29.2746 14.9417C29.2746 15.0951 29.2428 15.2868 29.1786 15.5172L22.1967 36.9628C22.0688 37.3334 21.8545 37.6275 21.5541 37.8451C21.2536 38.0623 20.9114 38.1711 20.5276 38.1711V38.1711Z" fill="#1260AE"/>
<path d="M31.642 35.4805C31.2396 35.4805 30.8778 35.2834 30.5572 34.8903C30.2362 34.4966 30.0759 34.0025 30.0759 33.4079C30.0759 33.0241 30.1504 32.6692 30.2999 32.3427C30.4489 32.0167 30.6577 31.7574 30.9263 31.5658L39.5185 25.5211L30.8592 19.678C30.5906 19.4859 30.3857 19.227 30.2435 18.901C30.1018 18.5746 30.0312 18.229 30.0312 17.8648C30.0312 17.2888 30.2028 16.7805 30.546 16.3393C30.695 16.1662 30.8665 16.027 31.0607 15.9216C31.2543 15.8162 31.4484 15.7633 31.642 15.7633C31.896 15.7633 32.1646 15.8594 32.4479 16.051L43.7254 23.6211C43.994 23.7942 44.1989 24.0481 44.3406 24.3844C44.4822 24.7202 44.5607 25.08 44.5754 25.4633C44.5754 25.8089 44.5195 26.1256 44.4077 26.4133C44.296 26.7011 44.1357 26.9412 43.9268 27.1329C43.9268 27.1329 43.8146 27.2192 43.5911 27.3922L32.4254 35.2212C32.1866 35.3937 31.9259 35.4805 31.642 35.4805V35.4805Z" fill="#FDAB00"/>
<path d="M29.2642 9.34415C29.6896 9.34415 30.0343 8.99937 30.0343 8.57405C30.0343 8.14874 29.6896 7.80396 29.2642 7.80396C28.8389 7.80396 28.4941 8.14874 28.4941 8.57405C28.4941 8.99937 28.8389 9.34415 29.2642 9.34415Z" fill="#2EBE80"/>
<path fill-rule="evenodd" clip-rule="evenodd" d="M29.0034 42.7961C29.0034 42.6103 28.8529 42.4598 28.6676 42.4598H19.9618C19.7765 42.4598 19.626 42.6103 19.626 42.7961C19.626 42.9814 19.7765 43.1319 19.9618 43.1319H28.6676C28.8529 43.1319 29.0034 42.9814 29.0034 42.7961V42.7961Z" fill="#1260AE"/>
</svg>
