<svg width="50" height="50" viewBox="0 0 50 50" fill="none" xmlns="http://www.w3.org/2000/svg">
<path fill-rule="evenodd" clip-rule="evenodd" d="M24.0858 1.40735C10.7833 1.40735 0 12.1912 0 25.4936C0 38.7868 10.7926 49.5794 24.0858 49.5794C37.3882 49.5794 48.1716 38.7956 48.1716 25.4936H47.6275C47.6275 38.4951 37.0877 49.0353 24.0858 49.0353C11.0926 49.0353 0.544118 38.4863 0.544118 25.4936C0.544118 12.4917 11.0843 1.95147 24.0858 1.95147V1.40735Z" fill="#2C7BD8"/>
<path d="M24.0854 45.4932C35.1309 45.4932 44.085 36.5391 44.085 25.4937C44.085 14.4482 35.1309 5.49414 24.0854 5.49414C13.04 5.49414 4.08594 14.4482 4.08594 25.4937C4.08594 36.5391 13.04 45.4932 24.0854 45.4932Z" fill="#D9ECFB"/>
<path d="M23.3614 3.5549C24.3431 3.5549 25.1389 2.75911 25.1389 1.77745C25.1389 0.795792 24.3431 0 23.3614 0C22.3798 0 21.584 0.795792 21.584 1.77745C21.584 2.75911 22.3798 3.5549 23.3614 3.5549Z" fill="#FDAB00"/>
<path d="M47.795 27.5617C48.7767 27.5617 49.5725 26.7659 49.5725 25.7843C49.5725 24.8026 48.7767 24.0068 47.795 24.0068C46.8134 24.0068 46.0176 24.8026 46.0176 25.7843C46.0176 26.7659 46.8134 27.5617 47.795 27.5617Z" fill="#FDAB00"/>
<path fill-rule="evenodd" clip-rule="evenodd" d="M33.0372 8.38529C33.0372 7.78234 32.798 7.20391 32.3715 6.77744C31.945 6.35146 31.3671 6.11176 30.7642 6.11176C26.6985 6.11176 18.2274 6.11176 14.1617 6.11176C13.5588 6.11176 12.9808 6.35146 12.5544 6.77744C12.1279 7.20391 11.8887 7.78234 11.8887 8.38529C11.8887 15.1176 11.8887 34.9015 11.8887 41.6343C11.8887 42.2373 12.1279 42.8152 12.5544 43.2417C12.9808 43.6681 13.5588 43.9073 14.1617 43.9073C18.2274 43.9073 26.6985 43.9073 30.7642 43.9073C31.3671 43.9073 31.945 43.6681 32.3715 43.2417C32.798 42.8152 33.0372 42.2373 33.0372 41.6343C33.0372 34.9015 33.0372 15.1176 33.0372 8.38529Z" fill="#D9ECFB"/>
<path fill-rule="evenodd" clip-rule="evenodd" d="M33.6247 8.4005C33.6247 6.54805 31.9482 5.04462 29.883 5.04462H14.5747C12.5095 5.04462 10.833 6.54805 10.833 8.4005V41.5554C10.833 43.4078 12.5095 44.9113 14.5747 44.9113H29.883C31.9482 44.9113 33.6247 43.4078 33.6247 41.5554V8.4005ZM32.1943 9.31373C32.1943 7.56324 31.4129 6.14217 29.4614 6.14217H14.9962C13.0448 6.14217 12.3026 7.56324 12.3026 9.31373V40.6422C12.3026 42.3927 13.0448 43.5177 14.9962 43.5177H29.4614C31.4129 43.5177 32.1943 42.3927 32.1943 40.6422V9.31373Z" fill="#2C7BD8"/>
<path d="M35.3273 12.95H30.1729V36.575H35.3273V12.95Z" fill="#D9ECFB"/>
<path fill-rule="evenodd" clip-rule="evenodd" d="M26.1202 7.96764C26.1202 7.70244 25.9045 7.48676 25.6393 7.48676H19.3261C19.0604 7.48676 18.8447 7.70244 18.8447 7.96764C18.8447 8.23332 19.0604 8.44901 19.3261 8.44901H25.6393C25.9045 8.44901 26.1202 8.23332 26.1202 7.96764Z" fill="#FDAB00"/>
<path d="M27.9823 8.76224C28.4548 8.76224 28.8377 8.41746 28.8377 7.99214C28.8377 7.56683 28.4548 7.22205 27.9823 7.22205C27.5099 7.22205 27.127 7.56683 27.127 7.99214C27.127 8.41746 27.5099 8.76224 27.9823 8.76224Z" fill="#2EBE80"/>
<path fill-rule="evenodd" clip-rule="evenodd" d="M27.6926 42.2137C27.6926 42.0284 27.5421 41.8779 27.3568 41.8779H17.6082C17.4229 41.8779 17.2725 42.0284 17.2725 42.2137C17.2725 42.3995 17.4229 42.55 17.6082 42.55H27.3568C27.5421 42.55 27.6926 42.3995 27.6926 42.2137Z" fill="#1260AE"/>
<path d="M20.7738 12.95H14.9248V16.3265H20.7738V12.95Z" fill="#2EBE80"/>
<path d="M20.7738 23.074H14.9248V26.4505H20.7738V23.074Z" fill="#1260AE"/>
<path d="M20.7738 33.1985H14.9248V36.575H20.7738V33.1985Z" fill="#FDAB00"/>
<path fill-rule="evenodd" clip-rule="evenodd" d="M33.3784 14.8353C32.5166 14.725 31.6446 14.725 30.7833 14.8353C30.6392 15.7157 30.4921 16.5951 30.3416 17.474C29.5147 17.6657 28.725 17.9926 28.0044 18.4417C27.2764 17.927 26.5504 17.4093 25.8264 16.8887C25.1392 17.4196 24.5225 18.0368 23.9911 18.7235C24.5122 19.4475 25.0299 20.1735 25.5446 20.9015C25.0955 21.6221 24.7686 22.4118 24.5769 23.2387C23.698 23.3892 22.8181 23.5363 21.9382 23.6804C21.8279 24.5417 21.8279 25.4142 21.9382 26.2755C22.8181 26.4196 23.698 26.5667 24.5769 26.7171C24.7686 27.5441 25.0955 28.3338 25.5446 29.0544C25.0299 29.7823 24.5122 30.5083 23.9911 31.2323C24.5225 31.9196 25.1392 32.5363 25.8264 33.0672C26.5504 32.5466 27.2764 32.0289 28.0044 31.5142C28.725 31.9632 29.5147 32.2902 30.3416 32.4819C30.4921 33.3608 30.6392 34.2402 30.7833 35.1206C31.6446 35.2309 32.5166 35.2309 33.3784 35.1206C33.522 34.2402 33.6696 33.3608 33.8201 32.4819C34.647 32.2902 35.4367 31.9632 36.1568 31.5142C36.8852 32.0289 37.6112 32.5466 38.3348 33.0672C39.022 32.5363 39.6387 31.9196 40.1701 31.2323C39.6495 30.5083 39.1318 29.7823 38.6166 29.0544C39.0661 28.3338 39.3931 27.5441 39.5848 26.7171C40.4637 26.5667 41.3431 26.4196 42.2235 26.2755C42.3333 25.4142 42.3333 24.5417 42.2235 23.6804C41.3431 23.5363 40.4637 23.3892 39.5848 23.2387C39.3931 22.4118 39.0661 21.6221 38.6166 20.9015C39.1318 20.1735 39.6495 19.4475 40.1701 18.7235C39.6387 18.0368 39.022 17.4196 38.3348 16.8887C37.6112 17.4093 36.8852 17.927 36.1568 18.4417C35.4367 17.9926 34.647 17.6657 33.8201 17.474C33.6696 16.5951 33.522 15.7157 33.3784 14.8353ZM32.0808 21.7304C33.873 21.7304 35.3279 23.1858 35.3279 24.9779C35.3279 26.7701 33.873 28.2255 32.0808 28.2255C30.2887 28.2255 28.8333 26.7701 28.8333 24.9779C28.8333 23.1858 30.2887 21.7304 32.0808 21.7304Z" fill="#FDAB00"/>
</svg>
