<svg width="50" height="50" viewBox="0 0 50 50" fill="none" xmlns="http://www.w3.org/2000/svg">
<path fill-rule="evenodd" clip-rule="evenodd" d="M23.8519 1.39368C10.6786 1.39368 0 12.0728 0 25.2461C0 38.4102 10.6879 49.098 23.8519 49.098C37.0252 49.098 47.7039 38.4189 47.7039 25.2461H47.1651C47.1651 38.1213 36.7277 48.5592 23.8519 48.5592C10.985 48.5592 0.538835 38.1126 0.538835 25.2461C0.538835 12.3704 10.9767 1.93251 23.8519 1.93251V1.39368Z" fill="#2C7BD8"/>
<path d="M23.8517 45.0515C34.7899 45.0515 43.6571 36.1843 43.6571 25.2461C43.6571 14.308 34.7899 5.4408 23.8517 5.4408C12.9135 5.4408 4.04639 14.308 4.04639 25.2461C4.04639 36.1843 12.9135 45.0515 23.8517 45.0515Z" fill="#D9ECFB"/>
<path d="M23.1352 3.52039C24.1073 3.52039 24.8954 2.73232 24.8954 1.76019C24.8954 0.788066 24.1073 0 23.1352 0C22.1631 0 21.375 0.788066 21.375 1.76019C21.375 2.73232 22.1631 3.52039 23.1352 3.52039Z" fill="#FDAB00"/>
<path d="M47.331 27.2942C48.3031 27.2942 49.0912 26.5061 49.0912 25.534C49.0912 24.5619 48.3031 23.7738 47.331 23.7738C46.3589 23.7738 45.5708 24.5619 45.5708 25.534C45.5708 26.5061 46.3589 27.2942 47.331 27.2942Z" fill="#FDAB00"/>
<path fill-rule="evenodd" clip-rule="evenodd" d="M34.9438 16.9063C38.9239 22.2558 38.5132 29.8626 33.6836 34.7485C28.854 39.635 21.2521 40.1335 15.8569 36.216L19.77 32.2573C22.9516 34.1 27.0977 33.6471 29.8016 30.9117C32.5055 28.1762 32.9103 24.0252 31.0307 20.865L34.9438 16.9063Z" fill="#FDAB00"/>
<path fill-rule="evenodd" clip-rule="evenodd" d="M31.9759 13.9728L28.0628 17.9315C24.8813 16.0883 20.7357 16.5417 18.0313 19.2772C15.3274 22.0126 14.9225 26.1636 16.8022 29.3233L12.889 33.282C8.90944 27.933 9.31963 20.3257 14.1497 15.4398C18.9793 10.5539 26.5808 10.0553 31.9759 13.9728Z" fill="#2EBE80"/>
<path fill-rule="evenodd" clip-rule="evenodd" d="M20.5366 20.5174C22.7303 18.9048 25.8352 19.0907 27.8187 21.0742C29.8026 23.0577 29.9881 26.1631 28.3759 28.3563L26.7687 26.7495C27.5289 25.4548 27.3536 23.7607 26.2429 22.6505C25.1323 21.5398 23.4386 21.3645 22.1439 22.1247L20.5366 20.5174Z" fill="#2EBE80"/>
<path fill-rule="evenodd" clip-rule="evenodd" d="M19.3316 21.7224L20.9389 23.3296C20.1787 24.6243 20.3539 26.318 21.4646 27.4287C22.5748 28.5393 24.269 28.7146 25.5636 27.9544L27.1704 29.5617C24.9772 31.1738 21.8719 30.9884 19.8884 29.0044C17.9049 27.0209 17.719 23.916 19.3316 21.7224Z" fill="#FDAB00"/>
<path d="M10.74 41.9738C12.5996 41.9738 14.107 40.4663 14.107 38.6068C14.107 36.7473 12.5996 35.2398 10.74 35.2398C8.8805 35.2398 7.37305 36.7473 7.37305 38.6068C7.37305 40.4663 8.8805 41.9738 10.74 41.9738Z" fill="#2C7BD8"/>
<path d="M36.9642 15.2524C38.8237 15.2524 40.3312 13.745 40.3312 11.8854C40.3312 10.0259 38.8237 8.51843 36.9642 8.51843C35.1046 8.51843 33.5972 10.0259 33.5972 11.8854C33.5972 13.745 35.1046 15.2524 36.9642 15.2524Z" fill="#2C7BD8"/>
</svg>
