<svg width="50" height="50" viewBox="0 0 50 50" fill="none" xmlns="http://www.w3.org/2000/svg">
<path fill-rule="evenodd" clip-rule="evenodd" d="M24.0863 1.40784C10.7838 1.40784 0 12.1917 0 25.4936C0 38.7873 10.7926 49.5794 24.0863 49.5794C37.3882 49.5794 48.1721 38.7961 48.1721 25.4936H47.6279C47.6279 38.4956 37.0877 49.0353 24.0863 49.0353C11.0931 49.0353 0.544118 38.4868 0.544118 25.4936C0.544118 12.4922 11.0843 1.95195 24.0863 1.95195V1.40784Z" fill="#2C7BD8"/>
<path d="M24.0864 45.4932C35.1318 45.4932 44.0859 36.5391 44.0859 25.4937C44.0859 14.4482 35.1318 5.49414 24.0864 5.49414C13.041 5.49414 4.08691 14.4482 4.08691 25.4937C4.08691 36.5391 13.041 45.4932 24.0864 45.4932Z" fill="#D9ECFB"/>
<path d="M23.3619 3.5549C24.3436 3.5549 25.1394 2.75911 25.1394 1.77745C25.1394 0.795792 24.3436 0 23.3619 0C22.3803 0 21.5845 0.795792 21.5845 1.77745C21.5845 2.75911 22.3803 3.5549 23.3619 3.5549Z" fill="#FDAB00"/>
<path d="M47.795 27.5622C48.7767 27.5622 49.5725 26.7664 49.5725 25.7848C49.5725 24.8031 48.7767 24.0073 47.795 24.0073C46.8134 24.0073 46.0176 24.8031 46.0176 25.7848C46.0176 26.7664 46.8134 27.5622 47.795 27.5622Z" fill="#FDAB00"/>
<path fill-rule="evenodd" clip-rule="evenodd" d="M21.3852 21.7309H14.4077C14.4077 21.2975 14.4352 20.8642 14.4901 20.4333C15.3705 20.2892 16.2499 20.1421 17.1288 19.9916C17.3205 19.1647 17.6474 18.375 18.0964 17.6544C17.5817 16.9265 17.0641 16.2005 16.543 15.4764C17.0744 14.7897 17.691 14.1725 18.3783 13.6416C19.1023 14.1622 19.8283 14.6799 20.5562 15.1946C21.2768 14.7456 22.0665 14.4186 22.8935 14.2269C23.044 13.348 23.191 12.4686 23.3352 11.5882C24.1964 11.4779 25.0685 11.4779 25.9303 11.5882C26.0739 12.4686 26.2214 13.348 26.3719 14.2269C27.1989 14.4186 27.9886 14.7456 28.7087 15.1946C29.4371 14.6799 30.1631 14.1622 30.8866 13.6416C31.5739 14.1725 32.1906 14.7897 32.7219 15.4764C32.2013 16.2005 31.6837 16.9265 31.1685 17.6544C31.618 18.375 31.945 19.1647 32.1366 19.9916C33.0156 20.1421 33.895 20.2892 34.7754 20.4333C34.8303 20.8642 34.8577 21.2975 34.8577 21.7309H27.8798C27.8798 19.9387 26.4249 18.4833 24.6327 18.4833C22.8406 18.4833 21.3852 19.9387 21.3852 21.7309Z" fill="#FDAB00"/>
<path fill-rule="evenodd" clip-rule="evenodd" d="M7.96464 18.6343H3.14062C2.4514 18.6343 1.89209 19.1932 1.89209 19.8829C1.89209 19.9005 1.89209 19.9182 1.89209 19.9358C1.89209 20.6255 2.4514 21.1843 3.14062 21.1843C4.91807 21.1843 7.96464 21.1843 7.96464 21.1843V18.6343Z" fill="#2C7BD8"/>
<path fill-rule="evenodd" clip-rule="evenodd" d="M36.5846 22.7677H12.6807L17.5547 33.576H31.6797L36.5846 22.7677Z" fill="#2C7BD8"/>
<path d="M31.6796 35.7495H14.5771V37.9539H31.6796V35.7495Z" fill="#2C7BD8"/>
<path d="M17.4209 42.7564C19.3558 42.7564 20.9243 41.1878 20.9243 39.2529C20.9243 37.3181 19.3558 35.7495 17.4209 35.7495C15.486 35.7495 13.9175 37.3181 13.9175 39.2529C13.9175 41.1878 15.486 42.7564 17.4209 42.7564Z" fill="#2C7BD8"/>
<path d="M17.421 41.6544C18.7473 41.6544 19.8225 40.5793 19.8225 39.253C19.8225 37.9267 18.7473 36.8515 17.421 36.8515C16.0947 36.8515 15.0195 37.9267 15.0195 39.253C15.0195 40.5793 16.0947 41.6544 17.421 41.6544Z" fill="#D9ECFB"/>
<path d="M31.6797 42.7564C33.6146 42.7564 35.1831 41.1878 35.1831 39.2529C35.1831 37.3181 33.6146 35.7495 31.6797 35.7495C29.7448 35.7495 28.1763 37.3181 28.1763 39.2529C28.1763 41.1878 29.7448 42.7564 31.6797 42.7564Z" fill="#2C7BD8"/>
<path d="M31.6798 41.6544C33.0061 41.6544 34.0813 40.5793 34.0813 39.253C34.0813 37.9267 33.0061 36.8515 31.6798 36.8515C30.3535 36.8515 29.2783 37.9267 29.2783 39.253C29.2783 40.5793 30.3535 41.6544 31.6798 41.6544Z" fill="#D9ECFB"/>
<path fill-rule="evenodd" clip-rule="evenodd" d="M17.0171 36.7329L7.96901 18.6343L5.52686 19.8549L14.5754 37.9539L17.0171 36.7329Z" fill="#2C7BD8"/>
<path d="M41.7504 26.2309H29.2788V28.1721H41.7504V26.2309Z" fill="#2EBE80"/>
<path d="M36.9538 29.3789H26.4062V30.6951H36.9538V29.3789Z" fill="#FDAB00"/>
</svg>
