<svg width="50" height="50" viewBox="0 0 50 50" fill="none" xmlns="http://www.w3.org/2000/svg">
<path fill-rule="evenodd" clip-rule="evenodd" d="M24.0858 1.40784C10.7833 1.40784 0 12.1912 0 25.4936C0 38.7873 10.7926 49.5794 24.0858 49.5794C37.3882 49.5794 48.1716 38.7961 48.1716 25.4936H47.6275C47.6275 38.4956 37.0877 49.0353 24.0858 49.0353C11.0926 49.0353 0.544118 38.4868 0.544118 25.4936C0.544118 12.4917 11.0843 1.95195 24.0858 1.95195V1.40784Z" fill="#2C7BD8"/>
<path d="M24.0854 45.4932C35.1309 45.4932 44.085 36.5391 44.085 25.4937C44.085 14.4482 35.1309 5.49414 24.0854 5.49414C13.04 5.49414 4.08594 14.4482 4.08594 25.4937C4.08594 36.5391 13.04 45.4932 24.0854 45.4932Z" fill="#D9ECFB"/>
<path fill-rule="evenodd" clip-rule="evenodd" d="M33.0372 8.90097C33.0372 8.29803 32.798 7.7196 32.3715 7.29313C31.945 6.86715 31.3671 6.62744 30.7642 6.62744C26.6985 6.62744 18.2274 6.62744 14.1617 6.62744C13.5588 6.62744 12.9808 6.86715 12.5544 7.29313C12.1279 7.7196 11.8887 8.29803 11.8887 8.90097C11.8887 15.6333 11.8887 35.4171 11.8887 42.15C11.8887 42.7529 12.1279 43.3309 12.5544 43.7573C12.9808 44.1838 13.5588 44.423 14.1617 44.423C18.2274 44.423 26.6985 44.423 30.7642 44.423C31.3671 44.423 31.945 44.1838 32.3715 43.7573C32.798 43.3309 33.0372 42.7529 33.0372 42.15C33.0372 35.4171 33.0372 15.6333 33.0372 8.90097Z" fill="#D9ECFB"/>
<path fill-rule="evenodd" clip-rule="evenodd" d="M33.6247 8.91619C33.6247 7.06373 31.9482 5.5603 29.883 5.5603H14.5747C12.5095 5.5603 10.833 7.06373 10.833 8.91619V42.0711C10.833 43.9235 12.5095 45.427 14.5747 45.427H29.883C31.9482 45.427 33.6247 43.9235 33.6247 42.0711V8.91619ZM32.1943 9.82942C32.1943 8.07893 31.4129 6.65785 29.4614 6.65785H14.9962C13.0448 6.65785 12.3026 8.07893 12.3026 9.82942V41.1579C12.3026 42.9083 13.0448 44.0333 14.9962 44.0333H29.4614C31.4129 44.0333 32.1943 42.9083 32.1943 41.1579V9.82942Z" fill="#2C7BD8"/>
<path d="M35.3273 13.4657H30.1729V37.0907H35.3273V13.4657Z" fill="#D9ECFB"/>
<path fill-rule="evenodd" clip-rule="evenodd" d="M26.1202 8.48332C26.1202 8.21813 25.9045 8.00244 25.6393 8.00244H19.3261C19.0604 8.00244 18.8447 8.21813 18.8447 8.48332C18.8447 8.74901 19.0604 8.9647 19.3261 8.9647H25.6393C25.9045 8.9647 26.1202 8.74901 26.1202 8.48332Z" fill="#FDAB00"/>
<path d="M27.9823 9.27793C28.4548 9.27793 28.8377 8.93314 28.8377 8.50783C28.8377 8.08252 28.4548 7.73773 27.9823 7.73773C27.5099 7.73773 27.127 8.08252 27.127 8.50783C27.127 8.93314 27.5099 9.27793 27.9823 9.27793Z" fill="#2EBE80"/>
<path fill-rule="evenodd" clip-rule="evenodd" d="M27.6926 42.7294C27.6926 42.5441 27.5421 42.3936 27.3568 42.3936H17.6082C17.4229 42.3936 17.2725 42.5441 17.2725 42.7294C17.2725 42.9152 17.4229 43.0657 17.6082 43.0657H27.3568C27.5421 43.0657 27.6926 42.9152 27.6926 42.7294Z" fill="#1260AE"/>
<path fill-rule="evenodd" clip-rule="evenodd" d="M32.2917 15.0569C38.0516 15.0569 42.7285 19.7334 42.7285 25.4937C42.7285 31.2539 38.0516 35.9304 32.2917 35.9304C26.5315 35.9304 21.8545 31.2539 21.8545 25.4937C21.8545 19.7334 26.5315 15.0569 32.2917 15.0569ZM32.2917 16.2892C37.3716 16.2892 41.4962 20.4133 41.4962 25.4937C41.4962 30.574 37.3716 34.6981 32.2917 34.6981C27.2114 34.6981 23.0868 30.574 23.0868 25.4937C23.0868 20.4133 27.2114 16.2892 32.2917 16.2892Z" fill="#FDAB00"/>
<path d="M38.0905 20.7951C39.9715 20.7951 41.4963 19.2702 41.4963 17.3892C41.4963 15.5082 39.9715 13.9833 38.0905 13.9833C36.2094 13.9833 34.6846 15.5082 34.6846 17.3892C34.6846 19.2702 36.2094 20.7951 38.0905 20.7951Z" fill="#D9ECFB"/>
<path d="M38.0911 19.7216C39.3793 19.7216 40.4235 18.6774 40.4235 17.3892C40.4235 16.1011 39.3793 15.0569 38.0911 15.0569C36.803 15.0569 35.7588 16.1011 35.7588 17.3892C35.7588 18.6774 36.803 19.7216 38.0911 19.7216Z" fill="#2EBE80"/>
<path d="M32.2926 31.1495C35.4163 31.1495 37.9485 28.6173 37.9485 25.4937C37.9485 22.37 35.4163 19.8378 32.2926 19.8378C29.1689 19.8378 26.6367 22.37 26.6367 25.4937C26.6367 28.6173 29.1689 31.1495 32.2926 31.1495Z" fill="#FDAB00"/>
<path d="M23.3614 3.5549C24.3431 3.5549 25.1389 2.75911 25.1389 1.77745C25.1389 0.795792 24.3431 0 23.3614 0C22.3798 0 21.584 0.795792 21.584 1.77745C21.584 2.75911 22.3798 3.5549 23.3614 3.5549Z" fill="#FDAB00"/>
<path d="M47.795 27.5622C48.7767 27.5622 49.5725 26.7664 49.5725 25.7848C49.5725 24.8031 48.7767 24.0073 47.795 24.0073C46.8134 24.0073 46.0176 24.8031 46.0176 25.7848C46.0176 26.7664 46.8134 27.5622 47.795 27.5622Z" fill="#FDAB00"/>
<path d="M17.8376 13.9598H14.9131V35.5416H17.8376V13.9598Z" fill="#2EBE80"/>
<path d="M22.4606 13.9598H19.5361V18.3441H22.4606V13.9598Z" fill="#FDAB00"/>
</svg>
