<svg width="50" height="50" viewBox="0 0 50 50" fill="none" xmlns="http://www.w3.org/2000/svg">
<path fill-rule="evenodd" clip-rule="evenodd" d="M24.0863 1.40735C10.7838 1.40735 0 12.1912 0 25.4936C0 38.7868 10.7926 49.5794 24.0863 49.5794C37.3882 49.5794 48.1721 38.7956 48.1721 25.4936H47.6279C47.6279 38.4951 37.0877 49.0353 24.0863 49.0353C11.0931 49.0353 0.544118 38.4863 0.544118 25.4936C0.544118 12.4917 11.0843 1.95147 24.0863 1.95147V1.40735Z" fill="#2C7BD8"/>
<path d="M24.0864 45.4932C35.1318 45.4932 44.0859 36.5391 44.0859 25.4936C44.0859 14.4482 35.1318 5.49414 24.0864 5.49414C13.041 5.49414 4.08691 14.4482 4.08691 25.4936C4.08691 36.5391 13.041 45.4932 24.0864 45.4932Z" fill="#D9ECFB"/>
<path d="M23.3619 3.5549C24.3436 3.5549 25.1394 2.75911 25.1394 1.77745C25.1394 0.795792 24.3436 0 23.3619 0C22.3803 0 21.5845 0.795792 21.5845 1.77745C21.5845 2.75911 22.3803 3.5549 23.3619 3.5549Z" fill="#FDAB00"/>
<path d="M47.795 27.5617C48.7767 27.5617 49.5725 26.7659 49.5725 25.7843C49.5725 24.8026 48.7767 24.0068 47.795 24.0068C46.8134 24.0068 46.0176 24.8026 46.0176 25.7843C46.0176 26.7659 46.8134 27.5617 47.795 27.5617Z" fill="#FDAB00"/>
<path d="M24.0864 27.6C25.2497 27.6 26.1927 26.657 26.1927 25.4936C26.1927 24.3303 25.2497 23.3873 24.0864 23.3873C22.923 23.3873 21.98 24.3303 21.98 25.4936C21.98 26.657 22.923 27.6 24.0864 27.6Z" fill="#2C7BD8"/>
<path fill-rule="evenodd" clip-rule="evenodd" d="M25.3838 15.351C24.522 15.2407 23.6499 15.2407 22.7882 15.351C22.6445 16.2309 22.4975 17.1103 22.3465 17.9892C21.5195 18.1809 20.7298 18.5083 20.0097 18.9573C19.2818 18.4426 18.5558 17.9245 17.8318 17.4039C17.1445 17.9353 16.5279 18.552 15.9965 19.2392C16.5171 19.9632 17.0347 20.6892 17.5499 21.4171C17.1009 22.1377 16.7735 22.927 16.5818 23.7539C15.7029 23.9049 14.8235 24.052 13.9436 24.1956C13.8333 25.0573 13.8333 25.9294 13.9436 26.7912C14.8235 26.9348 15.7029 27.0823 16.5818 27.2328C16.7735 28.0598 17.1009 28.8495 17.5499 29.5696C17.0347 30.2975 16.5171 31.0235 15.9965 31.7475C16.5279 32.4348 17.1445 33.0515 17.8318 33.5828C18.5558 33.0622 19.2818 32.5446 20.0097 32.0294C20.7298 32.4789 21.5195 32.8059 22.3465 32.9975C22.4975 33.8765 22.6445 34.7559 22.7882 35.6358C23.6499 35.7461 24.522 35.7461 25.3838 35.6358C25.5274 34.7559 25.6744 33.8765 25.8254 32.9975C26.6524 32.8059 27.4421 32.4789 28.1622 32.0294C28.8901 32.5446 29.6161 33.0622 30.3401 33.5828C31.0274 33.0515 31.6441 32.4348 32.1754 31.7475C31.6548 31.0235 31.1372 30.2975 30.622 29.5696C31.071 28.8495 31.3985 28.0598 31.5901 27.2328C32.469 27.0823 33.3485 26.9348 34.2284 26.7912C34.3387 25.9294 34.3387 25.0573 34.2284 24.1956C33.3485 24.052 32.469 23.9049 31.5901 23.7539C31.3985 22.927 31.071 22.1377 30.622 21.4171C31.1372 20.6892 31.6548 19.9632 32.1754 19.2392C31.6441 18.552 31.0274 17.9353 30.3401 17.4039C29.6161 17.9245 28.8901 18.4426 28.1622 18.9573C27.4421 18.5083 26.6524 18.1809 25.8254 17.9892C25.6744 17.1103 25.5274 16.2309 25.3838 15.351ZM24.0862 22.2461C25.8784 22.2461 27.3333 23.701 27.3333 25.4936C27.3333 27.2858 25.8784 28.7407 24.0862 28.7407C22.2936 28.7407 20.8387 27.2858 20.8387 25.4936C20.8387 23.701 22.2936 22.2461 24.0862 22.2461Z" fill="#FDAB00"/>
<path fill-rule="evenodd" clip-rule="evenodd" d="M20.3863 36.4245C24.2275 37.6368 28.5947 36.8069 31.7525 33.8706C35.2692 30.6015 36.2903 25.6461 34.7285 21.402L36.3251 19.9177C38.5947 25.0701 37.4927 31.3147 33.1393 35.3623C29.3476 38.8878 24.0741 39.8319 19.4907 38.2745L18.6594 39.9912L15.4844 35.2L21.2118 34.7201L20.3863 36.4245Z" fill="#2C7BD8"/>
<path fill-rule="evenodd" clip-rule="evenodd" d="M29.3028 12.9319L30.17 11.1407L33.3449 15.9319L27.6175 16.4118L28.4141 14.7672C24.3425 13.0363 19.4548 13.7324 16.0077 16.9368C12.4915 20.2064 11.4704 25.1613 13.0317 29.4054L11.4351 30.8897C9.16554 25.7373 10.2675 19.4931 14.6209 15.4451C18.7008 11.652 24.4969 10.8471 29.3028 12.9319Z" fill="#2EBE80"/>
<path fill-rule="evenodd" clip-rule="evenodd" d="M37.1212 36.7642L34.0329 33.6981L32.2266 35.5167L35.3143 38.5834L37.1212 36.7642Z" fill="#2C7BD8"/>
<path fill-rule="evenodd" clip-rule="evenodd" d="M46.0367 45.1995C46.6995 44.5324 46.696 43.4535 46.0284 42.7907C44.173 40.9481 40.6426 37.4422 38.7872 35.5995C38.1196 34.9368 37.0411 34.9402 36.3784 35.6079C35.7666 36.2236 35.0254 36.9701 34.4137 37.5858C33.7509 38.2535 33.7544 39.3319 34.422 39.9951C36.2774 41.8378 39.8078 45.3437 41.6632 47.1863C42.3308 47.849 43.4093 47.8456 44.0725 47.178C44.6838 46.5623 45.4255 45.8157 46.0367 45.1995Z" fill="#2C7BD8"/>
</svg>
