<svg width="50" height="50" viewBox="0 0 50 50" fill="none" xmlns="http://www.w3.org/2000/svg">
<path fill-rule="evenodd" clip-rule="evenodd" d="M24.0858 1.40784C10.7833 1.40784 0 12.1917 0 25.4941C0 38.7873 10.7922 49.5799 24.0858 49.5799C37.3882 49.5799 48.1716 38.7961 48.1716 25.4941H47.6275C47.6275 38.4956 37.0877 49.0358 24.0858 49.0358C11.0926 49.0358 0.544118 38.4868 0.544118 25.4941C0.544118 12.4922 11.0838 1.95195 24.0858 1.95195V1.40784Z" fill="#2C7BD8"/>
<path d="M24.0859 45.4936C35.1314 45.4936 44.0854 36.5396 44.0854 25.4941C44.0854 14.4487 35.1314 5.49463 24.0859 5.49463C13.0405 5.49463 4.08643 14.4487 4.08643 25.4941C4.08643 36.5396 13.0405 45.4936 24.0859 45.4936Z" fill="#D9ECFB"/>
<path d="M23.3619 3.5549C24.3436 3.5549 25.1394 2.75911 25.1394 1.77745C25.1394 0.795792 24.3436 0 23.3619 0C22.3803 0 21.5845 0.795792 21.5845 1.77745C21.5845 2.75911 22.3803 3.5549 23.3619 3.5549Z" fill="#FDAB00"/>
<path d="M47.7945 27.5622C48.7762 27.5622 49.572 26.7664 49.572 25.7848C49.572 24.8031 48.7762 24.0073 47.7945 24.0073C46.8129 24.0073 46.0171 24.8031 46.0171 25.7848C46.0171 26.7664 46.8129 27.5622 47.7945 27.5622Z" fill="#FDAB00"/>
<path d="M21.8121 11.1922C20.5214 10.0539 18.8616 9.3265 17.0342 9.21228V15.9701L21.8121 11.1922Z" fill="#2EBE80"/>
<path d="M17.0342 17.074V23.0667C20.2582 22.8652 22.8111 20.1878 22.8111 16.9128C22.8111 15.35 22.2293 13.924 21.2709 12.8373L17.0342 17.074Z" fill="#FDAB00"/>
<path d="M10.4766 16.9128C10.4766 20.1878 13.029 22.8652 16.2535 23.0667V10.7584C13.029 10.9598 10.4766 13.6373 10.4766 16.9128Z" fill="#2C7BD8"/>
<path d="M40.4221 15.5387C40.0941 15.8676 39.5618 15.8676 39.2334 15.5387L35.4579 11.7652C35.1299 11.4348 35.1299 10.9034 35.4579 10.5755L38.3946 7.63872C38.7231 7.31029 39.2554 7.31029 39.5843 7.63872L43.3589 11.4132C43.6873 11.7426 43.6868 12.2745 43.3584 12.6029L40.4221 15.5387Z" fill="#FDAB00"/>
<path d="M19.9823 26.0505L16.644 34.6167L24.9916 31.0608L19.9823 26.0505Z" fill="#FDAB00"/>
<path d="M17.8083 31.6279L16.644 34.6167L19.5578 33.376L17.8083 31.6279Z" fill="#2C7BD8"/>
<path d="M24.9917 31.0608L19.9824 26.0505L35.5295 10.5029L40.5393 15.5132L24.9917 31.0608Z" fill="#2C7BD8"/>
<path d="M40.5391 15.5133L35.5293 10.503L36.82 9.21228L41.8308 14.2221L40.5391 15.5133Z" fill="#2EBE80"/>
<path d="M24.9918 31.0608L22.4648 28.5323L38.0129 12.9848L40.5394 15.5132L24.9918 31.0608Z" fill="#1260AE"/>
<path d="M16.1413 36.2456C16.1457 36.2466 17.6241 36.5642 19.3927 36.8829C20.277 37.0422 21.2339 37.202 22.1197 37.3226C23.0069 37.4427 23.8153 37.5255 24.4417 37.5265C24.5962 37.5265 24.7398 37.5216 24.8761 37.5093C25.5653 37.4436 26.2942 37.2108 27.0667 36.9108C28.2212 36.4588 29.4663 35.8417 30.6261 35.3275C31.2055 35.0706 31.7623 34.8392 32.2658 34.6677C32.7677 34.4956 33.2182 34.3858 33.5628 34.3583C33.5947 34.3559 33.6334 34.3539 33.677 34.3539C33.829 34.3539 34.0432 34.374 34.2888 34.4147C34.7197 34.4848 35.2496 34.6142 35.7917 34.7696C36.6064 35.002 37.4525 35.2917 38.0913 35.5221C38.4109 35.6373 38.6785 35.7378 38.8663 35.8093C38.9599 35.8451 39.0339 35.8735 39.0839 35.8931C39.1084 35.903 39.1275 35.9103 39.1398 35.9157L39.1584 35.9226C39.5065 36.0608 39.9011 35.8902 40.0388 35.5422C40.177 35.1936 40.0069 34.7995 39.6584 34.6613C39.6506 34.6583 38.6226 34.2505 37.3756 33.8397C36.7515 33.6338 36.0731 33.4275 35.4329 33.2696C35.1128 33.1907 34.8015 33.1235 34.5079 33.0755C34.2138 33.0279 33.9388 32.9976 33.677 32.9976C33.6006 32.9976 33.5256 33 33.4506 33.0059C32.7594 33.0657 32.029 33.2951 31.2555 33.5931C30.0991 34.0417 28.854 34.6579 27.6927 35.1745C27.1133 35.4324 26.556 35.6657 26.052 35.8397C25.5496 36.0142 25.0986 36.1275 24.7525 36.1579C24.6707 36.1657 24.5648 36.1701 24.4417 36.1701C23.9354 36.1706 23.1574 36.0951 22.3025 35.9784C21.0172 35.8034 19.5437 35.5382 18.3957 35.3167C17.8216 35.2064 17.328 35.1069 16.979 35.0348C16.8045 34.999 16.6658 34.9696 16.5712 34.95C16.4761 34.9299 16.4261 34.9191 16.4261 34.9191C16.0599 34.8407 15.6991 35.0735 15.6202 35.4402C15.5417 35.8064 15.7746 36.1672 16.1413 36.2456Z" fill="#2EBE80"/>
</svg>
