<svg width="50" height="50" viewBox="0 0 50 50" fill="none" xmlns="http://www.w3.org/2000/svg">
<path fill-rule="evenodd" clip-rule="evenodd" d="M24.0858 1.40784C10.7838 1.40784 0 12.1917 0 25.4941C0 38.7873 10.7926 49.5799 24.0858 49.5799C37.3882 49.5799 48.1721 38.7961 48.1721 25.4941H47.6279C47.6279 38.4956 37.0877 49.0358 24.0858 49.0358C11.0931 49.0358 0.544118 38.4868 0.544118 25.4941C0.544118 12.4922 11.0843 1.95195 24.0858 1.95195V1.40784Z" fill="#2C7BD8"/>
<path d="M24.0859 45.4936C35.1314 45.4936 44.0854 36.5396 44.0854 25.4941C44.0854 14.4487 35.1314 5.49463 24.0859 5.49463C13.0405 5.49463 4.08643 14.4487 4.08643 25.4941C4.08643 36.5396 13.0405 45.4936 24.0859 45.4936Z" fill="#D9ECFB"/>
<path d="M23.3619 3.5549C24.3436 3.5549 25.1394 2.75911 25.1394 1.77745C25.1394 0.795792 24.3436 0 23.3619 0C22.3803 0 21.5845 0.795792 21.5845 1.77745C21.5845 2.75911 22.3803 3.5549 23.3619 3.5549Z" fill="#FDAB00"/>
<path d="M47.795 27.5622C48.7767 27.5622 49.5725 26.7664 49.5725 25.7848C49.5725 24.8031 48.7767 24.0073 47.795 24.0073C46.8134 24.0073 46.0176 24.8031 46.0176 25.7848C46.0176 26.7664 46.8134 27.5622 47.795 27.5622Z" fill="#FDAB00"/>
<path d="M20.0743 32.4192C19.9307 32.4192 19.791 32.3731 19.6557 32.2809L13.6983 28.102C13.4988 27.9481 13.3611 27.7898 13.2856 27.6255C13.2096 27.4618 13.1719 27.2775 13.1719 27.0726C13.1719 26.8677 13.2116 26.6755 13.2915 26.4961C13.3714 26.3172 13.4831 26.1814 13.6263 26.0893L19.6434 22.0486C19.7949 21.9461 19.9425 21.8947 20.0861 21.8947C20.19 21.8947 20.2934 21.9231 20.3974 21.979C20.5008 22.0353 20.5925 22.1098 20.6724 22.202C20.7523 22.3045 20.816 22.4299 20.8635 22.5785C20.9116 22.727 20.9356 22.878 20.9356 23.0319C20.9278 23.2265 20.8876 23.4108 20.816 23.5849C20.7439 23.7589 20.6405 23.8922 20.5047 23.9844L15.8635 27.1035L20.4689 30.3299C20.6126 30.4324 20.7243 30.5706 20.8037 30.7447C20.8836 30.9187 20.9233 31.1084 20.9233 31.3133C20.9233 31.6304 20.8381 31.8942 20.6665 32.1045C20.4949 32.3143 20.2974 32.4192 20.0743 32.4192Z" fill="#FDAB00"/>
<path d="M22.1632 33.8554C21.9176 33.8554 21.7024 33.7564 21.5181 33.5588C21.3475 33.3883 21.2622 33.1799 21.2622 32.9338C21.2622 32.8657 21.2794 32.7701 21.3137 32.6476L25.02 21.0976C25.0813 20.9064 25.196 20.753 25.3632 20.6368C25.5303 20.5206 25.7127 20.4628 25.9107 20.4628C26.1769 20.4628 26.399 20.5618 26.5764 20.7598C26.747 20.951 26.8323 21.1829 26.8323 21.4559C26.8323 21.5378 26.8151 21.6402 26.7813 21.7633L23.0544 33.2103C22.9857 33.4084 22.8715 33.5657 22.7112 33.6814C22.5509 33.7976 22.3681 33.8554 22.1632 33.8554Z" fill="#1260AE"/>
<path d="M28.0966 32.4192C27.8814 32.4192 27.6883 32.3143 27.5172 32.1045C27.3461 31.8942 27.2603 31.6304 27.2603 31.3133C27.2603 31.1084 27.3001 30.9187 27.38 30.7447C27.4594 30.5706 27.5706 30.4324 27.7143 30.3299L32.3005 27.1035L27.6785 23.9844C27.5349 23.8819 27.4255 23.7437 27.3501 23.5697C27.2741 23.3951 27.2363 23.2108 27.2363 23.0162C27.2363 22.7089 27.328 22.4378 27.5113 22.202C27.5907 22.1098 27.6824 22.0353 27.7858 21.979C27.8893 21.9231 27.9927 21.8947 28.0966 21.8947C28.2319 21.8947 28.3751 21.9461 28.5265 22.0486L34.5461 26.0893C34.6893 26.1814 34.7991 26.3172 34.8746 26.4961C34.9501 26.6755 34.9922 26.8677 35.0001 27.0726C35.0001 27.2569 34.9702 27.426 34.9103 27.5795C34.8505 27.7334 34.7653 27.8613 34.6535 27.9638C34.6535 27.9638 34.5942 28.0099 34.4746 28.102L28.5143 32.2809C28.3868 32.3731 28.2476 32.4192 28.0966 32.4192Z" fill="#FDAB00"/>
<path fill-rule="evenodd" clip-rule="evenodd" d="M40.5264 11.9275C40.5264 11.0603 39.8225 10.3559 38.9553 10.3559H9.21659C8.34943 10.3559 7.64551 11.0603 7.64551 11.9275V39.0608C7.64551 39.928 8.34943 40.6319 9.21659 40.6319H38.9553C39.8225 40.6319 40.5264 39.928 40.5264 39.0608V11.9275ZM38.144 17.3853H10.0279V37.9976H38.144V17.3853Z" fill="#2C7BD8"/>
<path d="M39.0473 42.9475C41.11 42.9475 42.7821 41.379 42.7821 39.4441C42.7821 37.5092 41.11 35.9407 39.0473 35.9407C36.9846 35.9407 35.3125 37.5092 35.3125 39.4441C35.3125 41.379 36.9846 42.9475 39.0473 42.9475Z" fill="#D9ECFB"/>
<path fill-rule="evenodd" clip-rule="evenodd" d="M40.5048 32.7937C40.4509 32.4623 40.1852 32.2059 39.8523 32.1633C39.2136 32.0814 38.5675 32.0814 37.9288 32.1633C37.596 32.2059 37.3308 32.4623 37.2763 32.7937C37.2067 33.2206 37.1357 33.6471 37.0636 34.0741C36.7734 34.1687 36.4911 34.2853 36.219 34.4236C35.8665 34.1731 35.5146 33.9216 35.1631 33.6687C34.8906 33.4726 34.5219 33.4789 34.2562 33.6843C33.7469 34.078 33.2901 34.5353 32.896 35.0441C32.691 35.3098 32.6842 35.6789 32.8803 35.9515C33.1332 36.303 33.3847 36.6549 33.6352 37.0074C33.4969 37.2794 33.3803 37.5618 33.2857 37.852C32.8592 37.924 32.4322 37.9951 32.0053 38.0647C31.6739 38.1187 31.4175 38.3843 31.3749 38.7172C31.293 39.3559 31.293 40.002 31.3749 40.6407C31.4175 40.9736 31.6739 41.2388 32.0053 41.2932C32.4322 41.3628 33.8293 41.7299 34.2562 41.802C34.3504 42.0922 41.9146 34.1731 41.5616 34.4236C41.2901 34.2853 41.0077 34.1687 40.7175 34.0741C40.6455 33.6471 40.5744 33.2206 40.5048 32.7937Z" fill="#D9ECFB"/>
<path d="M38.8907 41.0853C39.6675 41.0853 40.2971 40.4557 40.2971 39.679C40.2971 38.9022 39.6675 38.2726 38.8907 38.2726C38.114 38.2726 37.4844 38.9022 37.4844 39.679C37.4844 40.4557 38.114 41.0853 38.8907 41.0853Z" fill="#2C7BD8"/>
<path fill-rule="evenodd" clip-rule="evenodd" d="M39.7558 32.9157C39.1813 32.8422 38.6 32.8422 38.0255 32.9157C37.9294 33.5024 37.8313 34.0892 37.7308 34.675C37.1794 34.8029 36.6529 35.0211 36.1725 35.3206C35.6872 34.977 35.2029 34.6319 34.7201 34.2848C34.2622 34.6392 33.8509 35.05 33.4965 35.5083C33.8436 35.9912 34.1892 36.4755 34.5323 36.9608C34.2328 37.4412 34.0147 37.9676 33.8867 38.5191C33.3009 38.6196 32.7142 38.7176 32.1274 38.8137C32.0539 39.3882 32.0539 39.9696 32.1274 40.5441C32.7142 40.6402 33.3009 40.7382 33.8867 40.8387C34.0147 41.3902 34.2328 41.9167 34.5323 42.3971C34.1892 42.8824 33.8436 43.3667 33.4965 43.849C33.8509 44.3074 34.2622 44.7186 34.7201 45.073C35.2029 44.726 35.6872 44.3804 36.1725 44.0373C36.6529 44.3368 37.1794 44.5549 37.7308 44.6824C37.8313 45.2686 37.9294 45.8549 38.0255 46.4422C38.6 46.5157 39.1813 46.5157 39.7558 46.4422C39.8519 45.8549 39.95 45.2686 40.0505 44.6824C40.6019 44.5549 41.1284 44.3368 41.6088 44.0373C42.0941 44.3804 42.5784 44.726 43.0612 45.073C43.5191 44.7186 43.9304 44.3074 44.2848 43.849C43.9377 43.3667 43.5921 42.8824 43.249 42.3971C43.5485 41.9167 43.7666 41.3902 43.8946 40.8387C44.4804 40.7382 45.0671 40.6402 45.6539 40.5441C45.7274 39.9696 45.7274 39.3882 45.6539 38.8137C45.0671 38.7176 44.4804 38.6196 43.8946 38.5191C43.7666 37.9676 43.5485 37.4412 43.249 36.9608C43.5921 36.4755 43.9377 35.9912 44.2848 35.5083C43.9304 35.05 43.5191 34.6392 43.0612 34.2848C42.5784 34.6319 42.0941 34.977 41.6088 35.3206C41.1284 35.0211 40.6019 34.8029 40.0505 34.675C39.95 34.0892 39.8519 33.5024 39.7558 32.9157ZM38.8906 37.5132C40.0857 37.5132 41.0558 38.4838 41.0558 39.6789C41.0558 40.874 40.0857 41.8441 38.8906 41.8441C37.6955 41.8441 36.7255 40.874 36.7255 39.6789C36.7255 38.4838 37.6955 37.5132 38.8906 37.5132Z" fill="#FDAB00"/>
<path fill-rule="evenodd" clip-rule="evenodd" d="M31.1619 13.5471C31.1619 13.226 30.9011 12.9652 30.5801 12.9652H29.4154C29.0938 12.9652 28.833 13.226 28.833 13.5471V14.7118C28.833 15.0333 29.0938 15.2941 29.4154 15.2941H30.5801C30.9011 15.2941 31.1619 15.0333 31.1619 14.7118V13.5471Z" fill="#2EBE80"/>
<path fill-rule="evenodd" clip-rule="evenodd" d="M34.8021 13.5471C34.8021 13.226 34.5408 12.9652 34.2197 12.9652H33.055C32.7334 12.9652 32.4727 13.226 32.4727 13.5471V14.7118C32.4727 15.0333 32.7334 15.2941 33.055 15.2941H34.2197C34.5408 15.2941 34.8021 15.0333 34.8021 14.7118V13.5471Z" fill="#FDAB00"/>
<path fill-rule="evenodd" clip-rule="evenodd" d="M38.161 13.5471C38.161 13.226 37.8997 12.9652 37.5786 12.9652H36.4139C36.0923 12.9652 35.8315 13.226 35.8315 13.5471V14.7118C35.8315 15.0333 36.0923 15.2941 36.4139 15.2941H37.5786C37.8997 15.2941 38.161 15.0333 38.161 14.7118V13.5471Z" fill="white"/>
</svg>
